<svg height="512pt" viewBox="0 -11 512.00075 512" width="512pt" xmlns="http://www.w3.org/2000/svg"><path d="m501.011719 245c0 135.308594-109.691407 245-245 245-135.3125 0-245-109.691406-245-245s109.6875-245 245-245c135.308593 0 245 109.691406 245 245zm0 0" fill="#ffbe71"/><path d="m342 299.007812h30l-32.675781 176.460938c-10.257813 3.710938-20.839844 6.753906-31.679688 9.082031zm-202 0 32.675781 176.457032c10.257813 3.707031 20.839844 6.753906 31.679688 9.082031l-34.355469-185.539063zm-115.167969-270h-19.828125c-3.128906 0-5.488281 2.835938-4.9179685 5.910157l48.9062505 264.089843-10.792969 58.285157c6.667969 12.90625 14.453125 25.140625 23.222656 36.582031l17.570313-94.867188-49.246094-265.910156c-.4375-2.371094-2.503906-4.089844-4.914063-4.089844zm482.167969 0h-19.832031c-2.410157 0-4.476563 1.71875-4.914063 4.089844l-49.242187 265.910156 17.566406 94.902344c8.769531-11.441406 16.558594-23.683594 23.226563-36.589844l-10.792969-58.3125 48.902343-264.089843c.570313-3.074219-1.789062-5.910157-4.914062-5.910157zm-266 460.539063c4.964844.300781 9.960938.453125 15 .453125s10.035156-.152344 15-.449219v-320.542969h-30zm0 0" fill="#994122"/><path d="m300.011719 49c11.042969 0 20 8.953125 20 20s-8.957031 20-20 20c-11.046875 0-20-8.953125-20-20s8.953125-20 20-20zm-90 35c0 13.808594 11.191406 25 25 25 13.804687 0 25-11.191406 25-25 0-13.804688-11.195313-25-25-25-13.808594 0-25 11.195312-25 25zm0 0" fill="#0ab59e"/><path d="m270.011719 49c16.566406 0 30 13.429688 30 30s-13.433594 30-30 30c-16.570313 0-30-13.429688-30-30s13.429687-30 30-30zm0 0" fill="#0ed1b2"/><path d="m314.011719 99-10 40h-80l-10-40zm0 0" fill="#c92e43"/><path d="m314.011719 99-10 40h-53l-10-40zm0 0" fill="#e43950"/><path d="m305.011719 79c8.28125 0 15 6.714844 15 15s-6.71875 15-15 15c-8.285157 0-15-6.714844-15-15s6.714843-15 15-15zm-65 20c0 5.523438 4.476562 10 10 10 5.519531 0 10-4.476562 10-10s-4.480469-10-10-10c-5.523438 0-10 4.476562-10 10zm0 0" fill="#0ed1b2"/><path d="m245.011719 39c8.28125 0 15 6.714844 15 15s-6.71875 15-15 15c-8.285157 0-15-6.714844-15-15s6.714843-15 15-15zm-45 55c0 8.285156 6.714843 15 15 15 8.28125 0 15-6.714844 15-15s-6.71875-15-15-15c-8.285157 0-15 6.714844-15 15zm0 0" fill="#0ab59e"/><path d="m260.011719 37.417969c5.519531 0 10 4.476562 10 10 0 5.523437-4.480469 10-10 10-5.523438 0-10-4.476563-10-10 0-5.523438 4.476562-10 10-10zm-30 40c0 5.523437 4.476562 10 10 10 5.519531 0 10-4.476563 10-10 0-5.523438-4.480469-10-10-10-5.523438 0-10 4.476562-10 10zm0 0" fill="#fdcdc7"/><path d="m290.011719 49c5.519531 0 10 4.476562 10 10s-4.480469 10-10 10c-5.523438 0-10-4.476562-10-10s4.476562-10 10-10zm0 0" fill="#fc544d"/><path d="m170.011719 309h-120c-5.523438 0-10-4.476562-10-10v-11.328125c0-4.976563 3.65625-9.195313 8.585937-9.898437l91.8125-13.117188c20.902344-2.984375 39.601563 13.230469 39.601563 34.34375 0 5.523438-4.480469 10-10 10zm172 0h120c5.519531 0 10-4.476562 10-10v-11.328125c0-4.976563-3.660157-9.195313-8.585938-9.898437l-91.816406-13.117188c-20.898437-2.984375-39.597656 13.230469-39.597656 34.34375 0 5.523438 4.476562 10 10 10zm0 0" fill="#e43950"/><path d="m179.601562 293.699219h-99.589843c-5.523438 0-10-4.476563-10-10v-8.984375l70.398437-10.058594c19.113282-2.730469 36.371094 10.601562 39.191406 29.042969zm283.824219-15.925781-91.816406-13.117188c-1.917969-.273438-3.816406-.382812-5.683594-.34375-3.722656 5.503906-5.914062 12.15625-5.914062 19.386719 0 5.519531 4.476562 10 10 10h102v-6.027344c0-4.976563-3.660157-9.195313-8.585938-9.898437zm0 0" fill="#ea5569"/><path d="m383.96875 143.847656 26.367188 98.863282c.84375 3.175781-1.546876 6.289062-4.832032 6.289062h-299.089844c-3.253906 0-5.640624-3.054688-4.851562-6.210938l24.660156-98.640624c2.226563-8.902344 10.226563-15.148438 19.402344-15.148438h219.019531c9.0625 0 16.992188 6.09375 19.324219 14.847656zm0 0" fill="#fde5bd"/><path d="m244.398438 205.105469c-.789063 7.886719-7.449219 13.878906-15.375 13.832031-.132813-.003906-.269532-.003906-.40625-.003906-7.726563-.046875-14.214844-5.824219-15.152344-13.496094l-3.855469-31.527344c-.371094-3.027344-3.117187-5.242187-6.230469-4.867187-2.640625.316406-4.628906 2.570312-4.894531 5.214843l-3.179687 31.804688c-.367188 3.679688-4.457032 5.683594-7.613282 3.757812-22.636718-13.808593-35.550781-41.320312-28.515625-69.457031 0-6.273437 5.085938-11.363281 11.359375-11.363281h194.160156c9.0625 0 16.992188 6.09375 19.328126 14.847656l20.039062 75.152344h-24.121094c-7.761718 0-14.304687-5.789062-15.25-13.496094l-5.082031-41.59375c-.371094-3.027344-3.117187-5.242187-6.230469-4.867187-2.640625.316406-4.632812 2.570312-4.894531 5.210937l-4.089844 40.914063c-.785156 7.851562-7.394531 13.832031-15.285156 13.832031h-.390625c-7.761719 0-14.304688-5.789062-15.246094-13.496094l-3.863281-31.59375c-.371094-3.027344-3.117187-5.242187-6.230469-4.867187-2.640625.316406-4.628906 2.570312-4.894531 5.210937l-3.089844 30.914063c-.785156 7.851562-7.394531 13.832031-15.285156 13.832031h-.167969c-7.761718 0-14.304687-5.789062-15.246094-13.496094l-5.054687-41.363281c-.324219-2.632813-2.351563-4.839844-4.988281-5.109375-3.121094-.320312-5.839844 1.949219-6.144532 5zm0 0" fill="#fff5f5"/></svg>