<svg height="512pt" viewBox="0 -6 512 512" width="512pt" xmlns="http://www.w3.org/2000/svg"><path d="m500.222656 250.460938c0 138.234374-111.976562 250.296874-250.109375 250.296874-138.132812 0-250.113281-112.0625-250.113281-250.296874 0-138.234376 111.980469-250.296876 250.113281-250.296876 138.132813 0 250.109375 112.0625 250.109375 250.296876zm0 0" fill="#ffbe71"/><path d="m403.574219 185.863281c3.984375 3.988281 3.984375 10.457031 0 14.449219-1.996094 1.992188-4.609375 2.992188-7.21875 2.992188-2.613281 0-5.226563-1-7.21875-2.992188-5.253907-5.257812-12.234375-8.152344-19.660157-8.152344-7.425781 0-14.40625 2.894532-19.65625 8.152344-3.988281 3.988281-10.449218 3.988281-14.4375 0-3.988281-3.992188-3.988281-10.460938 0-14.449219 9.105469-9.113281 21.214844-14.132812 34.097657-14.132812 12.878906 0 24.984375 5.019531 34.09375 14.132812zm26.605469-26.417969c-33.46875-33.496093-87.933594-33.496093-121.40625 0-3.984376 3.988282-3.984376 10.457032 0 14.449219 3.988281 3.988281 10.449218 3.988281 14.4375 0 25.511718-25.53125 67.019531-25.53125 92.53125 0 1.992187 1.996094 4.605468 2.992188 7.21875 2.992188 2.613281 0 5.226562-.996094 7.21875-2.992188 3.988281-3.992187 3.988281-10.460937 0-14.449219zm0 0" fill="#f7e6b0"/><path d="m71.023438 425.460938c-11.433594-11.804688-21.714844-24.734376-30.664063-38.609376v-371.527343c0-8.464844 6.855469-15.324219 15.3125-15.324219h51.027344c-10.328125 0-18.699219 8.378906-18.699219 18.710938v399.820312c0 8.878906-10.800781 13.304688-16.976562 6.929688zm0 0" fill="#056099"/><path d="m285.367188 15.324219v445.429687c0 8.460938-6.855469 15.324219-15.3125 15.324219h-128.378907c-25.46875-11.496094-50.714843-30.019531-70.691406-50.660156v-410.09375c0-8.460938 6.859375-15.324219 15.316406-15.324219h183.753907c8.457031 0 15.3125 6.863281 15.3125 15.324219zm0 0" fill="#0571b3"/><path d="m178.175781 443.382812c0 8.464844-6.855469 15.324219-15.3125 15.324219s-15.3125-6.859375-15.3125-15.324219c0-8.460937 6.855469-15.324218 15.3125-15.324218s15.3125 6.863281 15.3125 15.324218zm0 0" fill="#056099"/><path d="m247.070312 407.628906h-168.410156c-8.46875 0-15.332031-6.863281-15.332031-15.332031v-347.339844c0-8.464843 6.863281-15.328125 15.332031-15.328125h168.410156c8.464844 0 15.328126 6.863282 15.328126 15.328125v347.339844c0 8.46875-6.863282 15.332031-15.328126 15.332031zm0 0" fill="#0ed1b2"/><path d="m81.195312 241.613281v-5.105469c0-2.820312 2.285157-5.109374 5.105469-5.109374h71.460938c2.816406 0 5.101562 2.289062 5.101562 5.109374v5.105469c0 2.820313-2.285156 5.109375-5.101562 5.109375h-71.460938c-2.820312 0-5.105469-2.289062-5.105469-5.109375zm5.105469 43.417969h91.875c2.820313 0 5.105469-2.285156 5.105469-5.105469v-5.109375c0-2.820312-2.285156-5.105468-5.105469-5.105468h-91.875c-2.820312 0-5.105469 2.285156-5.105469 5.105468v5.109375c0 2.820313 2.285157 5.105469 5.105469 5.105469zm132.710938 15.324219h-132.710938c-2.820312 0-5.105469 2.289062-5.105469 5.109375v5.109375c0 2.820312 2.285157 5.105469 5.105469 5.105469h132.710938c2.816406 0 5.105469-2.285157 5.105469-5.105469v-5.109375c0-2.820313-2.285157-5.109375-5.105469-5.109375zm-40.835938 30.648437h-91.875c-2.820312 0-5.105469 2.289063-5.105469 5.109375v5.109375c0 2.820313 2.285157 5.105469 5.105469 5.105469h91.875c2.820313 0 5.105469-2.285156 5.105469-5.105469v-5.109375c0-2.820312-2.285156-5.109375-5.105469-5.109375zm0 0" fill="#89e9d9"/><path d="m145.722656 150.390625c-5.980468 5.984375-15.675781 5.984375-21.65625 0l-38.386718-38.414063c-6.152344-6.160156-5.976563-16.253906.535156-22.183593 6.097656-5.554688 15.597656-5.015625 21.425781.816406l38.082031 38.109375c5.980469 5.984375 5.980469 15.6875 0 21.671875zm0 0" fill="#d9e7ec"/><path d="m316.613281 55.785156-132.714843 132.8125c-2.988282 2.992188-6.90625 4.488282-10.824219 4.488282-3.921875 0-7.839844-1.496094-10.828125-4.488282l-43.054688-43.085937c-5.980468-5.984375-5.980468-15.6875 0-21.671875 5.980469-5.984375 15.675782-5.984375 21.652344 0l32.230469 32.25 121.574219-121.667969c5.832031-5.835937 15.328124-6.371094 21.429687-.820313 6.507813 5.929688 6.6875 16.027344.535156 22.183594zm0 0" fill="#fff5f5"/><path d="m195.53125 402.515625v-163.453125c0-8.464844 6.863281-15.328125 15.328125-15.328125h285.8125c8.464844 0 15.328125 6.863281 15.328125 15.328125v163.453125c0 8.464844-6.863281 15.328125-15.328125 15.328125h-285.8125c-8.464844 0-15.328125-6.863281-15.328125-15.328125zm0 0" fill="#ffe899"/><path d="m496.6875 223.734375h-255.214844c-8.457031 0-15.316406 6.863281-15.316406 15.324219v136.054687c0 .972657.675781 1.847657 1.632812 2.011719 4.777344.816406 8.414063 4.976562 8.414063 9.988281 0 5.015625-3.636719 9.175781-8.414063 9.988281-.957031.164063-1.632812 1.042969-1.632812 2.015626v3.402343c0 8.464844 6.859375 15.324219 15.316406 15.324219h255.214844c8.457031 0 15.3125-6.859375 15.3125-15.324219v-163.460937c0-8.460938-6.855469-15.324219-15.3125-15.324219zm-238.902344 173.515625c-5.59375 0-10.128906-4.539062-10.128906-10.136719 0-5.597656 4.535156-10.136719 10.128906-10.136719 5.589844 0 10.125 4.539063 10.125 10.136719 0 5.597657-4.535156 10.136719-10.125 10.136719zm31.703125 0c-5.59375 0-10.128906-4.539062-10.128906-10.136719 0-5.597656 4.535156-10.136719 10.128906-10.136719s10.128907 4.539063 10.128907 10.136719c0 5.597657-4.535157 10.136719-10.128907 10.136719zm0 0" fill="#fdf7bd"/><path d="m266.992188 336.113281v5.109375c0 2.820313-2.285157 5.105469-5.105469 5.105469h-40.832031c-2.820313 0-5.105469-2.285156-5.105469-5.105469v-5.109375c0-2.820312 2.285156-5.105469 5.105469-5.105469h40.832031c2.820312-.003906 5.105469 2.285157 5.105469 5.105469zm219.488281 25.539063h-81.671875c-2.816406 0-5.105469 2.289062-5.105469 5.109375v5.109375c0 2.820312 2.285156 5.105468 5.105469 5.105468h81.671875c2.816406 0 5.101562-2.285156 5.101562-5.105468v-5.109375c0-2.820313-2.285156-5.109375-5.101562-5.109375zm0-30.648438h-132.714844c-2.820313 0-5.105469 2.289063-5.105469 5.109375v5.109375c0 2.820313 2.285156 5.105469 5.105469 5.105469h132.710937c2.820313 0 5.105469-2.285156 5.105469-5.105469v-5.109375c0-2.820312-2.285156-5.109375-5.101562-5.109375zm0 0" fill="#f5dc90"/><path d="m512 305.464844h-316.46875v-40.863282h316.46875zm0 0" fill="#b55c3c"/><path d="m512 305.464844h-285.84375v-40.863282h285.84375zm0 0" fill="#cc7556"/></svg>