<svg viewBox="0 0 512 512" xmlns="http://www.w3.org/2000/svg"><path d="m72.769531 420.679688c-10.226562 0-19.902343-4.839844-25.867187-13.144532-29.507813-41.082031-46.902344-91.472656-46.902344-145.914062 0-138.238282 112.03125-250.308594 250.253906-250.378906 134.667969-.066407 245.902344 107.277343 250.363282 241.875 1.914062 57.75-15.738282 111.300781-46.835938 154.539062-5.921875 8.230469-15.519531 13.023438-25.65625 13.023438zm0 0" fill="#81c784"/><path d="m157.222656 110.363281v305.019531c0 38.019532-45 58.488282-73.378906 33.191407-13.761719-12.269531-26.160156-26.03125-36.941406-41.039063v-297.171875c0-10.15625 8.234375-18.386719 18.386718-18.386719h73.546876c10.152343 0 18.386718 8.230469 18.386718 18.386719zm0 0" fill="#b55c3c"/><path d="m453.855469 192.121094v215.414062c-10.734375 14.945313-23.074219 28.65625-36.765625 40.886719-7.511719 6.710937-20.792969 12.277344-37.890625 16.710937-149.726563 38.804688-295.523438-75.449218-295.523438-230.125v-124.644531c0-10.152343 8.230469-18.386719 18.386719-18.386719h333.40625c10.15625 0 18.386719 8.234376 18.386719 18.386719zm0 0" fill="#cc7556"/><path d="m417.085938 134.878906v313.539063c-44.273438 39.539062-102.675782 63.582031-166.707032 63.582031-64.027344 0-122.429687-24.042969-166.703125-63.582031v-313.539063c0-3.386718 2.746094-6.128906 6.128907-6.128906h321.152343c3.382813 0 6.128907 2.742188 6.128907 6.128906zm0 0" fill="#fdd78d"/><path d="m417.085938 134.878906v177.445313c0 56.992187 4.902343 56.820312 23.375 95.410156.4375 1.699219-.0625 3.5-1.3125 4.730469-47.136719 46.347656-209.585938 89.070312-328.34375 46.976562-1.625-.574218-2.820313-1.972656-3.160157-3.664062-15.941406-79.707032-23.96875-98.5625-23.96875-179.847656v-141.050782c0-3.386718 2.746094-6.128906 6.128907-6.128906h321.152343c3.382813 0 6.128907 2.742188 6.128907 6.128906zm0 0" fill="#fdf7bd"/><path d="m328.046875 122.636719v10.21875c0 5.644531-4.574219 10.222656-10.21875 10.222656h-134.898437c-5.644532 0-10.21875-4.578125-10.21875-10.222656v-10.21875c0-28.175781 22.921874-51.097657 51.097656-51.097657h53.140625c28.175781 0 51.097656 22.921876 51.097656 51.097657zm0 0" fill="#f4aa39"/><path d="m200.75 407.285156c.960938 11.511719-8.128906 21.386719-19.679688 21.386719h-13.609374c-11.550782 0-20.636719-9.875-19.679688-21.386719l6.726562-80.683594h39.519532zm132.941406-177.34375v5.109375c0 2.820313-2.289062 5.109375-5.109375 5.109375h-71.539062c-2.820313 0-5.109375-2.289062-5.109375-5.109375v-5.109375c0-2.820312 2.289062-5.109375 5.109375-5.109375h71.539062c2.820313 0 5.109375 2.289063 5.109375 5.109375zm0 0" fill="#f5b65d"/><path d="m212.121094 204.675781v51.035157c0 13.941406-11.296875 25.238281-25.238282 25.238281v42.734375h5.050782c2.785156 0 5.046875 2.261718 5.046875 5.050781 0 2.785156-2.261719 5.046875-5.046875 5.046875h-35.332032c-2.789062 0-5.050781-2.261719-5.050781-5.046875 0-2.789063 2.261719-5.050781 5.050781-5.050781h5.046876v-42.734375c-13.941407 0-25.238282-11.296875-25.238282-25.238281v-51.035157c0-8 6.203125-14.550781 14.0625-15.101562.585938-.042969 1.078125.425781 1.078125 1.007812v57.558594c0 4.304687 3.589844 7.765625 7.9375 7.5625 4.074219-.191406 7.207031-3.699219 7.207031-7.777344v-50.820312c0-4.183594 3.390626-7.570313 7.570313-7.570313 4.183594 0 7.574219 3.386719 7.574219 7.570313v51.035156c0 4.304687 3.585937 7.765625 7.9375 7.5625 4.070312-.191406 7.203125-3.699219 7.203125-7.777344v-57.34375c0-.582031.496093-1.050781 1.078125-1.007812 7.859375.550781 14.0625 7.101562 14.0625 15.101562zm0 0" fill="#fbc56d"/><path d="m364.347656 283.59375v5.109375c0 2.820313-2.285156 5.109375-5.109375 5.109375h-102.195312c-2.820313 0-5.109375-2.289062-5.109375-5.109375v-5.109375c0-2.820312 2.289062-5.109375 5.109375-5.109375h102.195312c2.824219 0 5.109375 2.289063 5.109375 5.109375zm-107.304687 40.878906h91.976562c2.820313 0 5.109375-2.289062 5.109375-5.109375v-5.109375c0-2.824218-2.289062-5.109375-5.109375-5.109375h-91.976562c-2.820313 0-5.109375 2.285157-5.109375 5.109375v5.109375c0 2.820313 2.289062 5.109375 5.109375 5.109375zm102.195312 15.328125h-102.195312c-2.820313 0-5.109375 2.289063-5.109375 5.109375v5.109375c0 2.824219 2.289062 5.109375 5.109375 5.109375h102.195312c2.824219 0 5.109375-2.285156 5.109375-5.109375v-5.109375c0-2.820312-2.285156-5.109375-5.109375-5.109375zm-30.65625 30.660157h-71.539062c-2.820313 0-5.109375 2.289062-5.109375 5.109374v5.109376c0 2.820312 2.289062 5.109374 5.109375 5.109374h71.539062c2.820313 0 5.109375-2.289062 5.109375-5.109374v-5.109376c0-2.820312-2.289062-5.109374-5.109375-5.109374zm0 0" fill="#f5dc90"/><path d="m267.261719 416.449219c0 4.230469-3.429688 7.664062-7.664063 7.664062-4.230468 0-7.664062-3.433593-7.664062-7.664062 0-4.234375 3.433594-7.664063 7.664062-7.664063 4.234375 0 7.664063 3.429688 7.664063 7.664063zm16.332031-7.664063c-4.234375 0-7.664062 3.429688-7.664062 7.664063 0 4.230469 3.429687 7.664062 7.664062 7.664062s7.664062-3.433593 7.664062-7.664062c0-4.234375-3.429687-7.664063-7.664062-7.664063zm23.992188 0c-4.230469 0-7.664063 3.429688-7.664063 7.664063 0 4.230469 3.433594 7.664062 7.664063 7.664062 4.234374 0 7.667968-3.433593 7.667968-7.664062 0-4.234375-3.433594-7.664063-7.667968-7.664063zm0 0" fill="#ffe899"/><path d="m289.535156 73.117188c1.136719-3.496094 2.371094-7 3.734375-10.507813 2.34375-6.042969 3.371094-12.460937 3.035157-19.027344-.566407-11.183593-5.269532-21.867187-13.132813-29.835937-9.585937-9.714844-22.476563-14.570313-36.03125-13.632813-23.027344 1.589844-41.375 20.171875-42.675781 43.230469-.367188 6.519531.609375 12.886719 2.898437 18.925781 1.375 3.636719 2.625 7.265625 3.773438 10.886719-.027344.007812-.058594.015625-.085938.023438-5.417969 1.402343-9.449219 5.960937-10.355469 11.484374-1.578124 9.617188-2.433593 22.644532-2.433593 22.644532 0 5.644531 4.574219 10.21875 10.21875 10.21875h119.308593c-2.148437-21.550782-17.746093-39.191406-38.253906-44.410156zm-64.660156-28.621094c.707031-12.585938 11.105469-23.125 23.671875-23.992188 7.191406-.492187 14.03125 1.921875 19.261719 6.804688 5.238281 4.886718 8.121094 11.523437 8.121094 18.683594 0 3.1875-.578126 6.289062-1.714844 9.222656-2.113282 5.449218-3.980469 10.890625-5.601563 16.324218h-36.589843c-1.613282-5.492187-3.460938-11-5.550782-16.511718-1.265625-3.347656-1.804687-6.890625-1.597656-10.53125zm0 0" fill="#fdbf43"/></svg>