<svg viewBox="0 0 512 512" xmlns="http://www.w3.org/2000/svg"><path d="m271.902344 274.453125c0 140.992187-194.078125 182.367187-249.726563 52.824219-3.875-9.019532-6.632812-18.238282-8.066406-27.632813-1.886719-12.398437-2.867187-25.09375-2.867187-38.019531 0-50.511719 15-97.734375 40.878906-137.128906 40.089844-61.039063 106.1875-103.484375 182.253906-111.777344 9.191406-1 18.535156-1.503906 27.992188-1.476562 110.835937.324218 204.71875 72.671874 237.335937 172.695312 2.640625 8.097656-3.324219 16.425781-11.839844 16.425781h-200.632812c-8.464844 0-15.328125 6.867188-15.328125 15.332031zm0 0" fill="#A5D6A7"/><path d="m270.820312 183.953125h228.886719c7.972657 24.453125 12.292969 50.554687 12.292969 77.667969 0 91.691406-49.285156 171.871094-122.8125 215.492187-.515625.304688-1.046875.613281-1.585938.917969-59.09375 33.253906-132.113281-10.390625-132.113281-78.195312v-200.554688c0-8.464844 6.863281-15.328125 15.332031-15.328125zm0 0" fill="#fd6c55"/><path d="m439.441406 265.710938c0 5.644531-4.574218 10.21875-10.21875 10.21875-5.644531 0-10.21875-4.574219-10.21875-10.21875 0-5.644532 4.574219-10.21875 10.21875-10.21875 5.644532 0 10.21875 4.574218 10.21875 10.21875zm0 0" fill="#fc544d"/><path d="m408.785156 296.367188c0 5.644531-4.578125 10.222656-10.222656 10.222656s-10.21875-4.578125-10.21875-10.222656c0-5.644532 4.574219-10.21875 10.21875-10.21875s10.222656 4.574218 10.222656 10.21875zm-40.878906-40.875c-5.644531 0-10.21875 4.574218-10.21875 10.21875 0 5.644531 4.574219 10.21875 10.21875 10.21875s10.21875-4.574219 10.21875-10.21875c0-5.644532-4.574219-10.21875-10.21875-10.21875zm102.195312 71.535156c-5.644531 0-10.21875 4.574218-10.21875 10.21875 0 5.644531 4.574219 10.21875 10.21875 10.21875 5.644532 0 10.21875-4.574219 10.21875-10.21875 0-5.644532-4.574218-10.21875-10.21875-10.21875zm0 0" fill="#fd8e82"/><path d="m398.5625 414.914062c0 21.652344-3.273438 42.550782-9.375 62.199219-36.441406 22.539063-80.976562 34.886719-127.566406 34.886719-125.351563 0-229.191406-92.117188-247.511719-212.351562 37.480469-56.769532 101.835937-94.234376 174.953125-94.234376 115.703125 0 209.5 93.796876 209.5 209.5zm31.679688-383.484374c-50.992188-16.578126-105.769532 11.316406-122.351563 62.304687-16.582031 50.992187 11.3125 105.769531 62.304687 122.351563 17.722657 5.761718 35.902344 6.148437 52.777344 2.0625l8.957032 17.585937c3.839843 7.546875 13.070312 10.546875 20.617187 6.707031 7.542969-3.84375 10.546875-13.074218 6.703125-20.617187l-7.910156-15.535157c18.84375-11.660156 33.820312-29.789062 41.207031-52.507812 16.578125-50.992188-11.316406-105.769531-62.304687-122.351562zm-378.121094 93.066406c17.585937 35.246094 53.996094 59.457031 96.0625 59.457031 59.265625 0 107.304687-48.042969 107.304687-107.304687 0-23.953126-7.847656-46.070313-21.113281-63.929688-76.25 8.253906-142.222656 50.742188-182.253906 111.777344zm0 0" fill="#fde5bd"/><path d="m398.5625 414.769531c.003906 5.671875-.21875 11.289063-.660156 16.847657-1.757813 22.214843-16.488282 41.292968-37.617188 48.386718-25.019531 8.402344-51.804687 12.957032-79.660156 12.957032-115.460938 0-212.667969-78.152344-241.605469-184.449219-4.84375-17.796875-.570312-36.929688 11.601563-50.789063.0625-.070312.125-.144531.191406-.21875 36.351562-31.964844 83.859375-51.546875 135.9375-52.113281 115.457031-1.25 211.753906 93.914063 211.8125 209.378906zm31.679688-383.339843c-50.992188-16.578126-105.769532 11.316406-122.351563 62.304687-1.164063 3.578125-2.101563 7.175781-2.832031 10.773437 24.132812-32.761718 67.378906-47.996093 108.199218-34.722656 47.40625 15.414063 74.839844 63.847656 65.140626 111.554688 6.007812-8.15625 10.839843-17.394532 14.148437-27.558594 16.578125-50.992188-11.316406-105.769531-62.304687-122.351562zm-350.441407 90.210937c33.941407-43.046875 81.707031-74.675781 136.605469-88.203125 17.191406-4.234375 34.34375 6.824219 37.472656 24.25 1.3125 7.304688 1.882813 14.863281 1.632813 22.601562-1.855469 56.976563-48.679688 102.917969-105.679688 103.730469-26.460937.378907-50.753906-8.835937-69.648437-24.371093-.050782-.0625-.101563-.125-.15625-.1875-8.953125-10.9375-8.976563-26.722657-.226563-37.820313zm0 0" fill="#fff5f5"/><path d="m337.246094 414.914062c0 35.453126-12.464844 68.117188-33.234375 93.617188-10.347657 1.765625-20.839844 2.84375-31.644531 3.25 27.207031-23.425781 44.441406-58.144531 44.441406-96.867188 0-70.550781-57.195313-127.742187-127.746094-127.742187-69.546875 0-126.109375 55.578125-127.707031 124.742187-6.378907-8.484374-12.230469-17.378906-17.507813-26.652343 13.746094-67.621094 73.539063-118.53125 145.214844-118.53125 81.839844 0 148.183594 66.347656 148.183594 148.183593zm0 0" fill="#f9d19a"/><path d="m186.8125 22.625c16.828125 12.050781 27.800781 31.746094 27.800781 54.023438 0 36.6875-29.742187 66.425781-66.429687 66.425781-33.273438 0-60.828125-24.460938-65.671875-56.382813 28.589843-29.265625 64.285156-51.550781 104.300781-64.066406zm0 0" fill="#ffa799"/><path d="m108.488281 63.539062c5.824219 30.738282 32.8125 53.988282 65.246094 53.988282 11.777344 0 22.832031-3.078125 32.421875-8.457032-11.371094 20.289063-33.0625 34.003907-57.972656 34.003907-33.273438 0-60.828125-24.460938-65.671875-56.382813 8.109375-8.300781 16.785156-16.042968 25.976562-23.152344zm0 0" fill="#fd8e82"/><path d="m476.234375 123.65625c0 42.332031-34.316406 76.648438-76.648437 76.648438-42.332032 0-76.648438-34.316407-76.648438-76.648438 0-42.328125 34.316406-76.644531 76.648438-76.644531 42.332031 0 76.648437 34.316406 76.648437 76.644531zm0 0" fill="#994122"/><path d="m463.03125 166.667969c-13.785156 20.296875-37.054688 33.636719-63.445312 33.636719-42.332032 0-76.648438-34.316407-76.648438-76.648438 0-26.386719 13.339844-49.65625 33.640625-63.445312-8.328125 12.261718-13.199219 27.066406-13.199219 43.007812 0 8.648438 1.453125 16.949219 4.089844 24.703125 0-.058594-.003906-.117187-.003906-.175781 0-31.042969 25.164062-56.207032 56.207031-56.207032s56.210937 25.164063 56.210937 56.207032c0 23.425781-14.335937 43.496094-34.707031 51.9375 13.976563-.929688 26.925781-5.59375 37.855469-13.015625zm0 0" fill="#773725"/><path d="m439.441406 132.855469c0 22.578125-18.300781 40.878906-40.878906 40.878906-26.464844 0-45.292969-28.730469-40.875-40.878906 2.6875-7.398438 12.683594-5.011719 24.523438-17.03125 11.535156-11.710938 9.179687-21.210938 16.351562-23.847657 12.09375-4.441406 40.878906 14.433594 40.878906 40.878907zm0 0" fill="#f9d19a"/><path d="m374.332031 122.164062c2.484375-1.542968 5.132813-3.550781 7.878907-6.339843 11.535156-11.710938 9.179687-21.210938 16.351562-23.847657 12.09375-4.441406 40.878906 14.433594 40.878906 40.878907 0 9.46875-3.226562 18.179687-8.628906 25.109375-2.171875.28125-4.375.441406-6.621094.441406-24.566406 0-43.851562-19.839844-49.859375-36.242188zm0 0" fill="#fff5f5"/><path d="m388.34375 117.527344v10.21875c0 2.820312-2.289062 5.109375-5.109375 5.109375s-5.109375-2.289063-5.109375-5.109375v-10.21875c0-2.824219 2.289062-5.109375 5.109375-5.109375s5.109375 2.285156 5.109375 5.109375zm30.660156 25.546875c-1.996094-1.996094-5.230468-1.996094-7.226562 0l-5.730469 5.730469c-1.996094 1.996093-1.996094 5.230468 0 7.226562s5.230469 1.996094 7.226563 0l5.730468-5.730469c1.996094-1.996093 1.996094-5.230469 0-7.226562zm0 0" fill="#f4aa39"/><path d="m393.453125 143.074219c0 2.824219-2.289063 5.109375-5.109375 5.109375h-10.21875c-2.820312 0-5.109375-2.285156-5.109375-5.109375 0-2.820313 2.289063-5.109375 5.109375-5.109375h10.21875c2.820312 0 5.109375 2.289062 5.109375 5.109375zm34.273437-18.941407-14.453124-14.453124c-1.996094-1.996094-5.230469-1.996094-7.226563 0-1.996094 1.996093-1.996094 5.230468 0 7.226562l14.453125 14.453125c1.996094 1.996094 5.230469 1.996094 7.226562 0 1.996094-1.996094 1.996094-5.230469 0-7.226563zm0 0" fill="#cc7556"/><path d="m117.109375 57.140625c11.652344-8.25 24.042969-15.523437 37.046875-21.714844 3.105469.945313 6.027344 2.636719 8.480469 5.089844l21.679687 21.679687c7.980469 7.980469 7.980469 20.921876 0 28.902344l-21.679687 21.679688c-7.980469 7.984375-20.921875 7.984375-28.90625 0l-21.675781-21.679688c-7.984376-7.980468-7.984376-20.921875 0-28.902344zm0 0" fill="#fde5bd"/><path d="m184.316406 62.195312c7.980469 7.984376 7.980469 20.921876 0 28.90625l-19.765625 19.765626c-5.441406-1.652344-10.570312-4.625-14.871093-8.925782-13.96875-13.96875-13.96875-36.617187 0-50.585937 4.300781-4.300781 9.429687-7.273438 14.871093-8.925781zm0 0" fill="#fff5f5"/><path d="m158.691406 14.347656c-5.125 8.207032-7.578125 18.019532-6.625 28.078125.542969 5.769531.292969 11.476563-.667968 17.003907l-18.253907-5.371094c.40625-3.226563.464844-6.527344.148438-9.859375-1.34375-14.226563 2.105469-28.109375 9.328125-39.730469 3.203125-5.148438 10.34375-6.015625 14.628906-1.726562 3.082031 3.082031 3.75 7.910156 1.441406 11.605468zm0 0" fill="#86523e"/><path d="m173.710938 51.632812c-.804688 17.582032-14.832032 31.738282-32.679688 30.59375-15.4375-.988281-28.136719-13.667968-28.605469-29.132812-.542969-18.066406 12.65625-24.554688 25.359375-22.351562 1.710938.296874 3.46875.453124 5.265625.453124 1.789063 0 3.542969-.15625 5.25-.449218 13.039063-2.253906 26.050781 6.960937 25.410157 20.886718zm0 0" fill="#e43950"/><path d="m173.691406 51.632812c-.226562 4.941407-1.496094 9.609376-3.605468 13.746094-4.511719 2.226563-9.667969 3.339844-15.195313 2.988282-15.4375-.992188-28.136719-13.667969-28.601563-29.132813-.09375-3.0625.214844-5.785156.84375-8.195313 3.367188-.847656 7.019532-.925781 10.632813-.296874 1.710937.296874 3.46875.453124 5.265625.453124 1.789062 0 3.542969-.15625 5.25-.449218 13.039062-2.253906 26.046875 6.960937 25.410156 20.886718zm0 0" fill="#ea5569"/><path d="m271.695312 426.566406c-15.964843-15.960937-29.234374-44.539062-33.226562-48.527344-7.980469-7.984374-1.511719-27.394531 14.453125-43.359374 15.964844-15.964844 35.378906-22.433594 43.359375-14.453126 5.8125 5.8125 3.960938 17.6875-3.640625 29.875-2.53125 4.058594.472656 9.257813 5.253906 9.25h.140625c22.574219 0 40.878906 9.152344 40.878906 20.441407 0 8.59375-10.609374 15.945312-25.636718 18.964843-4.328125.867188-6.339844 5.820313-3.816406 9.445313 9.203124 13.183594 11.875 26.539063 5.59375 32.816406-7.984376 7.980469-27.394532 1.511719-43.359376-14.453125zm0 0" fill="#2cac8d"/><path d="m246.78125 391.371094c-3.886719-6.660156-6.78125-11.804688-8.3125-13.332032-7.980469-7.984374-1.511719-27.394531 14.453125-43.359374 15.964844-15.964844 35.378906-22.433594 43.359375-14.453126 3.480469 3.480469 4.191406 9.140626 2.589844 15.734376-9.753906 1.265624-22.113282 8.011718-32.984375 18.882812-12.234375 12.234375-19.253907 26.359375-19.105469 36.527344zm0 0" fill="#059b7e"/><path d="m118.542969 378.589844c51.644531 22.769531 72.042969 39.261718 68.628906 47.007812-3.417969 7.746094-29.347656 3.8125-80.996094-18.953125-51.644531-22.765625-109.445312-55.746093-106.03125-63.496093 3.414063-7.746094 66.753907 12.675781 118.398438 35.441406zm0 0" fill="#01988c"/><path d="m200.070312 343.144531c-15.964843 15.964844-44.539062 29.234375-48.53125 33.226563-7.980468 7.984375-27.390624 1.511718-43.355468-14.453125-15.964844-15.964844-22.433594-35.375-14.453125-43.355469 5.8125-5.8125 17.683593-3.960938 29.875 3.640625 4.058593 2.527344 9.257812-.476563 9.25-5.257813 0-.042968 0-.089843 0-.136718 0-22.578125 9.152343-40.878906 20.441406-40.878906 8.59375 0 15.941406 10.609374 18.964844 25.632812.867187 4.332031 5.820312 6.34375 9.445312 3.816406 13.183594-9.199218 26.539063-11.871094 32.820313-5.589844 7.980468 7.980469 1.507812 27.394532-14.457032 43.355469zm-87.660156 49.726563v33.945312c-41.414062 4.449219-77.335937 5.40625-78.410156-.722656-.566406-3.230469 8.699219-7.9375 23.488281-13.058594-26.9375-6.097656-46.375-12.660156-45.8125-17.289062.882813-7.28125 50.9375-7.390625 100.734375-2.875zm0 0" fill="#0ed1b2"/><path d="m161.785156 369.859375c-5.128906 2.980469-8.960937 5.230469-10.242187 6.511719-7.984375 7.984375-27.394531 1.511718-43.359375-14.449219-15.964844-15.964844-22.433594-35.378906-14.453125-43.359375 3.113281-3.113281 7.980469-4.007812 13.6875-3.019531 1.0625 10.167969 8.085937 23.261719 19.566406 34.742187 11.503906 11.503906 24.625 18.53125 34.800781 19.574219zm0 0" fill="#2cac8d"/><path d="m294.664062 411.167969c7.484376 38.789062-14.03125 77.621093-46.992187 100.453125-67.765625-3.539063-128.566406-34.382813-171.496094-81.773438 2.828125-43.957031 39.148438-80.382812 77.457031-92.257812 56.578126-17.542969 129.667969 14.671875 141.03125 73.578125zm0 0" fill="#b55c3c"/><path d="m226.792969 486.855469c-1.539063-.199219-2.167969-2.09375-1.070313-3.191407l13.175782-13.179687c.679687-.675781 1.757812-.734375 2.503906-.132813l2.316406 1.859376c4.777344 3.84375 11.957031 2.691406 15.214844-2.777344 2.632812-4.417969 1.328125-10.144532-2.675782-13.367188-.871093-.699218-.941406-2-.152343-2.789062l9.605469-9.601563c4.148437-4.152343 3.984374-10.984375-.496094-14.917969-4.089844-3.59375-10.355469-3.136718-14.203125.710938l-11.210938 11.210938c-.675781.675781-1.753906.734374-2.503906.132812l-20.683594-16.640625c-.871093-.699219-.9375-2-.148437-2.789063l21.066406-21.066406c4.148438-4.152344 3.984375-10.984375-.496094-14.917968-4.089844-3.59375-10.355468-3.136719-14.203125.710937l-22.675781 22.675781c-.675781.675782-1.753906.734375-2.5.132813l-21.085938-16.964844c-.871093-.699219-.941406-2-.152343-2.789063l17.390625-17.390624c4.152344-4.148438 3.984375-10.980469-.496094-14.917969-4.089844-3.589844-10.355469-3.136719-14.203125.714843l-18.996094 18.996094c-.679687.675782-1.757812.734375-2.503906.132813l-8.128906-6.539063c-4.574219-3.679687-11.347657-2.777344-14.777344 2.101563-3.128906 4.453125-2.003906 10.632812 2.238281 14.042969l5.816406 4.679687c.867188.699219.9375 1.996094.148438 2.785156l-25.753906 25.757813c-.964844.964844-2.605469.605468-3.089844-.667969-11.859375-31.074219 2.710938-69.488281 38.714844-81.003906.285156-.089844.570312-.179688.855468-.269531 56.578126-17.542969 129.667969 14.671874 141.03125 73.582031.820313 4.257812 1.292969 8.515625 1.4375 12.753906 1.316407 38.242187-32.460937 67.65625-69.308593 62.933594zm-43.992188-63.652344-21.085937-16.964844c-.746094-.601562-1.824219-.542969-2.503906.132813l-31.222657 31.222656c-.726562.726562-.746093 1.914062-.015625 2.640625 2.492188 2.488281 5.25 4.824219 8.285156 6.972656 4.605469 3.253907 9.328126 6.347657 14.15625 9.289063.742188.453125 1.695313.335937 2.308594-.277344l30.226563-30.226562c.792969-.789063.722656-2.089844-.148438-2.789063zm16.457031 15.386719-27.011718 27.011718c-.914063.914063-.65625 2.464844.511718 3.023438 8.636719 4.128906 17.554688 7.765625 26.707032 10.902344.679687.230468 1.433594.054687 1.941406-.453125l21.1875-21.1875c.789062-.789063.71875-2.089844-.148438-2.789063l-20.6875-16.640625c-.746093-.601562-1.824218-.542969-2.5.132813zm0 0" fill="#cc7556"/></svg>