<svg viewBox="0 0 512 512" xmlns="http://www.w3.org/2000/svg"><path d="m500.757812 261.621094c0 138.28125-112.097656 250.378906-250.378906 250.378906s-250.378906-112.097656-250.378906-250.378906 112.097656-250.378906 250.378906-250.378906 250.378906 112.097656 250.378906 250.378906zm0 0" fill="#81c784"/><path d="m214.320312 290.6875c0 5.644531-4.574218 10.21875-10.21875 10.21875-5.644531 0-10.21875-4.574219-10.21875-10.21875s4.574219-10.21875 10.21875-10.21875c5.644532 0 10.21875 4.574219 10.21875 10.21875zm47.328126 176.183594c-5.644532 0-10.21875 4.574218-10.21875 10.21875 0 5.644531 4.574218 10.21875 10.21875 10.21875 5.644531 0 10.21875-4.574219 10.21875-10.21875 0-5.644532-4.574219-10.21875-10.21875-10.21875zm0 0" fill="#f5b65d"/><path d="m82.164062 175.296875c0 5.644531-4.574218 10.21875-10.21875 10.21875-5.644531 0-10.222656-4.574219-10.222656-10.21875s4.578125-10.21875 10.222656-10.21875c5.640626 0 10.21875 4.574219 10.21875 10.21875zm311.535157 249.523437c-5.644531 0-10.21875 4.574219-10.21875 10.21875 0 5.644532 4.574219 10.21875 10.21875 10.21875s10.21875-4.574218 10.21875-10.21875c0-5.644531-4.578125-10.21875-10.21875-10.21875zm0 0" fill="#994122"/><path d="m247.910156 20.792969c31.714844 31.710937 3.605469 65.304687-34.453125 103.359375-38.054687 38.058594-71.644531 66.167968-103.359375 34.453125-31.714844-31.714844-26.570312-88.273438 11.484375-126.328125 38.058594-38.058594 94.613281-43.199219 126.328125-11.484375zm0 0" fill="#f3d373"/><path d="m276.90625 153.859375c3.121094.050781 5.152344 3.402344 3.632812 6.125-.011718.023437-.023437.046875-.035156.066406-3.515625 6.265625-8.003906 12.25-13.453125 17.695313-5.71875 5.722656-12.03125 10.386718-18.640625 13.976562-9.5625 5.191406-21.449218 3.320313-29.160156-4.355468-.019531-.015626-.035156-.03125-.050781-.050782l-35.402344-35.398437c-14.882813 9.476562-30.035156 10.160156-43.550781-3.359375-22.464844-22.464844-18.824219-62.527344 8.132812-89.484375 26.957032-26.957031 67.019532-30.597657 89.484375-8.132813 19.039063 19.039063 8.785157 40.179688-11.546875 62.246094l33.503906 33.507812c.054688.050782.105469.105469.160157.15625 4.617187 4.554688 10.714843 6.90625 16.925781 7.007813zm0 0" fill="#ebae56"/><path d="m219.042969 72.316406c.050781.050782.105469.105469.15625.15625l57.425781 57.421875c.050781.054688.101562.105469.15625.160157 7.566406 7.648437 9.4375 19.355468 4.359375 28.839843-.0625.117188-.125.230469-.1875.347657-2.4375 4.484374-6.101563 8.148437-10.585937 10.585937-.117188.0625-.230469.125-.347657.1875-9.484375 5.078125-21.191406 3.207031-28.839843-4.359375-.050782-.054688-.105469-.105469-.15625-.15625l-57.421876-57.421875c-.054687-.054687-.105468-.105469-.160156-.160156-7.5625-7.644531-9.441406-19.347657-4.363281-28.832031.0625-.113282.125-.230469.1875-.347657 2.4375-4.492187 6.105469-8.15625 10.597656-10.597656.117188-.0625.230469-.125.347657-.1875 9.484374-5.078125 21.183593-3.203125 28.832031 4.363281zm0 0" fill="#f3d373"/><path d="m63.320312 255.894531c7.707032-2.511719 14.136719-7.914062 17.820313-15.132812 8.675781-16.996094 23.605469-30.832031 42.980469-37.667969 8.316406-2.933594 17.472656 1.738281 19.875 10.382812 2.148437 7.722657-2.25 15.886719-9.804688 18.578126-.492187.175781-.984375.359374-1.46875.550781-17.050781 6.714843-24.085937 27.460937-14.703125 43.207031 2.609375 4.382812 3.464844 8.875 2.054688 12.902344-1.757813 5.023437-70.929688-13.882813-67.523438-23.621094 1.515625-4.332031 5.417969-7.457031 10.769531-9.199219zm0 0" fill="#2cac8d"/><path d="m351.960938 81.757812c0 5.644532-4.578126 10.21875-10.222657 10.21875-5.640625 0-10.21875-4.574218-10.21875-10.21875 0-5.644531 4.578125-10.21875 10.21875-10.21875 5.644531 0 10.222657 4.574219 10.222657 10.21875zm-120.984376 352.425782c-43.769531 7.359375-157.410156.953125-140.542968-144.335938.566406-4.878906-2.136719-9.460937-6.574219-11.566406-.023437-.011719-.050781-.027344-.074219-.035156-4.78125-2.289063-8.597656-5.855469-11.324218-10.21875-5.335938-8.539063-16.363282-11.8125-25.5625-7.722656-11.066407 4.925781-20.421876 14.292968-25.980469 29.410156-2.636719 7.179687-4.414063 14.507812-5.402344 21.90625-2.800781 20.980468 1.109375 42.324218 10.53125 61.277344 9.898437 19.921874 22.375 38.339843 36.992187 54.816406 10.824219 12.203125 24.0625 22.042968 38.773438 29.09375.023438.011718.050781.027344.078125.039062 65.84375 31.507813 108.515625 9.882813 133.148437-14.800781 3.191407-3.195313.394532-8.613281-4.0625-7.863281zm0 0" fill="#e43950"/><path d="m83.785156 278.242188c7 3.351562 14.84375 3.375 22.109375.703124 8.53125-3.136718 18.128907.097657 23.390625 7.507813 7.0625 9.941406 9.984375 21.277344 6.09375 32.359375-10.574218 30.144531 7.085938 67.582031 37.683594 82.226562 26.96875 12.902344 57.5 9.566407 80.566406-6.09375 5.042969-3.421874 11.363282 2.070313 8.582032 7.496094-.070313.140625-8.414063 20.867188-27.316407 39.742188-42.328125 22.492187-98.601562 3.558594-127.398437-31.746094-62.9375-77.160156-28.492188-134.480469-23.710938-132.195312zm0 0" fill="#ea5569"/><path d="m465.964844 276.03125c3.902344 22.515625-1.628906 64.371094-33.945313 96.6875-43.878906 43.878906-115.023437 43.878906-158.902343 0-40.652344-40.652344-43.632813-104.703125-8.960938-148.796875l39.742188-39.742187c31-31.003907 80.894531-31.558594 112.601562-1.714844l26.652344-26.652344c12.359375-12.359375 12.359375-32.46875 0-44.828125-9.089844-9.089844-23.878906-9.089844-32.972656 0-6.472657 6.476563-6.472657 17.011719 0 23.488281 4.386718 4.382813 11.515624 4.382813 15.902343 0 3.988281-3.992187 10.460938-3.992187 14.453125 0 3.988282 3.992188 3.988282 10.460938 0 14.453125-12.355468 12.351563-32.453125 12.351563-44.804687 0-14.445313-14.445312-14.445313-37.949219-.003907-52.394531 17.0625-17.058594 44.820313-17.058594 61.878907 0 20.328125 20.328125 20.328125 53.40625 0 73.734375l-109.761719 109.804687c-31.78125 31.777344 13.976562 80.808594 47.582031 50.96875 9.335938-8.289062 33.164063-34.03125 48.214844-55.082031-13.933594-2.886719-24.410156-15.230469-24.410156-30.019531 0-5.644531 4.578125-10.21875 10.222656-10.21875 10.664063 0 20.054687 5.449219 25.546875 13.710938 5.492188-8.261719 14.882812-13.710938 25.550781-13.710938 5.644531 0 10.21875 4.574219 10.21875 10.21875 0 14.929688-10.675781 27.363281-24.804687 30.09375zm0 0" fill="#fd8e82"/><path d="m443.265625 359.742188c-3.324219 4.445312-7.058594 8.789062-11.246094 12.976562-43.878906 43.878906-115.019531 43.878906-158.902343 0-40.652344-40.652344-43.632813-104.703125-8.960938-148.796875 3.480469-3.480469 9.265625.261719 7.488281 4.851563-15.585937 40.230468-7.148437 87.628906 25.320313 120.097656 39.890625 39.890625 102.316406 43.511718 146.300781 10.871094zm0 0" fill="#fd7c66"/><path d="m288.515625 385.605469c-5.414063-3.765625-25.621094-16.679688-37.082031-43.335938 12.574218 12.859375 74.449218 13.921875 95.878906-13.40625 7.664062 7.359375 18.53125 12.113281 29.652344 11.128907-3.941406 6.160156-35.261719 47.074218-88.449219 45.613281zm133.90625-83.050781c-9.144531 10.566406-18.097656 20.039062-24 25.703124 5.808594 29.9375-22.085937 60.722657-41.410156 77.273438 23.328125 1.035156 47.683593-8.332031 64.664062-23.664062 10.355469-24.613282 10.53125-56.34375.746094-79.3125zm-82.128906 15.941406c-4.273438-9.324219-4.617188-20.390625 1.410156-30.589844-13.144531.285156-70.203125-26.285156-70.03125-71.5 0 0-17.886719 14.554688-24.257813 37.230469 13.964844 37.78125 50.316407 64.796875 92.878907 64.859375zm33.160156-64.039063c-25.507813-25.507812-28.207031-65.300781-8.132813-93.855469-12.917968-.667968-25.960937 1.742188-37.941406 7.234376-12.96875 36.597656-4.839844 79.066406 24.394532 108.300781zm0 0" fill="#ffa799"/></svg>