<svg height="511pt" viewBox="-17 0 511 511.94713" width="511pt" xmlns="http://www.w3.org/2000/svg"><path d="m418.460938 383.746094c-3.863282 4.800781-4.929688 11.277344-2.816407 17.066406 5.425781 15.386719 3.089844 32.445312-6.273437 45.804688-9.363282 13.359374-24.601563 21.375-40.914063 21.523437-4.378906-.019531-8.738281-.59375-12.972656-1.707031-1.449219-.425782-2.8125-.851563-4.265625-1.367188-2.984375-1.023437-6.3125-2.214844-10.152344-3.496094l-101.71875-14.335937c-7.425781 0-14.507812.171875-21.332031.597656-19.351563.933594-38.585937 3.476563-57.515625 7.59375-11.179688 2.449219-22.183594 5.644531-32.9375 9.558594-9.527344 3.503906-19.90625 3.953125-29.699219 1.277344-9.101562-2.210938-17.371093-7.015625-23.804687-13.824219-13.050782-13.820312-17.296875-33.769531-11.011719-51.710938 2.117187-5.761718 1.046875-12.210937-2.8125-16.980468-54.089844-66.785156-66.488281-158.132813-32.164063-236.921875 34.324219-78.789063 109.664063-131.910157 195.40625-137.777344.9375-.085937 1.789063-.085937 2.730469-.085937 91.007813-5.242188 176.542969 43.6875 218.148438 124.796874 41.609375 81.109376 31.453125 179.128907-25.894531 249.988282zm0 0" fill="#00838f"/><path d="m392.863281 383.746094c-3.863281 4.800781-4.933593 11.277344-2.816406 17.066406 4.464844 12.683594 3.695313 26.625-2.132813 38.742188-6.324218 13.296874-18.1875 23.132812-32.429687 26.878906-4.113281 1.121094-8.359375 1.695312-12.628906 1.707031-5.878907-.015625-11.710938-1.054687-17.234375-3.074219-2.988282-1.023437-6.316406-2.214844-10.15625-3.496094l-97.449219-13.738281-4.269531-.597656c-26.5-.144531-52.941406 2.601563-78.847656 8.191406-11.179688 2.449219-22.183594 5.644531-32.9375 9.558594-1.339844.503906-2.707032.929687-4.097657 1.277344-9.101562-2.210938-17.371093-7.015625-23.804687-13.824219-13.050782-13.820312-17.296875-33.769531-11.011719-51.710938 2.117187-5.761718 1.046875-12.210937-2.8125-16.980468-54.089844-66.785156-66.488281-158.132813-32.164063-236.921875 34.324219-78.789063 109.664063-131.910157 195.40625-137.777344.9375-.085937 1.789063-.085937 2.730469-.085937 86.402344 4.625 162.921875 57.300781 198.078125 136.367187 35.15625 79.0625 23.019532 171.164063-31.421875 238.417969zm0 0" fill="#00bcd4"/><path d="m76.359375 136.023438c17.742187 11.945312 64.4375 34.746093 122.925781-4.183594 6.453125-4.308594 8.84375-12.652344 5.65625-19.726563-7.929687-17.484375-24.183594-46.207031-40.039062-31.027343-21.152344 20.25-21.972656 34.132812-86.910156 47.257812-1.679688.328125-3 1.628906-3.355469 3.300781s.324219 3.394531 1.722656 4.378907zm0 0" fill="#4caf50"/><path d="m341.746094 427.351562c8.707031 2.472657 15.703125 4.949219 21.25 6.910157 7.746094 2.773437 16.320312-.867188 19.710937-8.363281 3.453125-7.054688 1.617188-15.558594-4.4375-20.5625-11.511719-9.210938-23.722656-17.515626-36.523437-24.832032-.9375-.597656-1.960938-1.109375-2.984375-1.707031-30.15625-17.902344-64.363281-27.855469-99.414063-28.929687-62.464844 0-117.078125 37.972656-138.921875 55.46875-6.058593 5.003906-7.890625 13.507812-4.4375 20.5625 3.488281 7.394531 11.96875 10.996093 19.710938 8.363281 39.691406-14.023438 81.558593-20.871094 123.648437-20.222657zm0 0" fill="#4e342e"/><path d="m161.4375 149.675781c30.359375 11.757813 48.164062 43.34375 42.5 75.402344-5.660156 32.058594-33.207031 55.636719-65.757812 56.28125-32.550782.644531-61.007813-21.824219-67.9375-53.632813-6.925782-31.8125 9.613281-64.078124 39.484374-77.027343zm0 0" fill="#fff"/><path d="m410.015625 213.335938c0 37.703124-30.566406 68.265624-68.269531 68.265624-4.292969-.003906-8.578125-.40625-12.796875-1.195312-29.453125-5.585938-51.8125-29.734375-55.125-59.527344-3.3125-29.789062 13.199219-58.257812 40.703125-70.179687l27.304687-.511719 24.40625-.511719c26.390625 10.074219 43.8125 35.410157 43.777344 63.660157zm0 0" fill="#cfd8dc"/><path d="m402.335938 136.023438c-22.824219 15.445312-50.933594 20.984374-77.910157 15.359374-16.152343-3.503906-31.460937-10.144531-45.058593-19.542968-6.441407-4.308594-8.824219-12.644532-5.628907-19.710938 2.921875-6.523437 6.316407-12.824218 10.152344-18.859375 8.363281-12.714843 19.199219-22.441406 29.867187-12.203125 21.164063 20.3125 21.929688 34.136719 86.871094 47.277344 1.6875.304688 3.03125 1.59375 3.402344 3.273438.375 1.675781-.296875 3.414062-1.695312 4.40625zm0 0" fill="#2e7d32"/><path d="m341.746094 380.503906v73.300782c-.007813 2.601562-.234375 5.199218-.679688 7.765624-4.300781 24.457032-25.6875 42.195313-50.519531 41.898438-4.292969.027344-8.566406-.515625-12.714844-1.621094-22.378906-5.214844-38.28125-25.066406-38.484375-48.042968v-103.9375c35.050782 1.074218 69.257813 11.027343 99.414063 28.929687 1.023437.597656 2.046875 1.109375 2.984375 1.707031zm0 0" fill="#c52828"/><path d="m384.414062 213.335938c.007813 32.773437-23.273437 60.925781-55.464843 67.070312-29.453125-5.585938-51.8125-29.734375-55.125-59.527344-3.3125-29.789062 13.199219-58.257812 40.703125-70.179687l27.304687-.511719c25.785157 10.347656 42.65625 35.367188 42.582031 63.148438zm0 0" fill="#fff"/><path d="m360.777344 136.023438c-11.035156 7.378906-23.371094 12.59375-36.351563 15.359374-16.152343-3.503906-31.460937-10.144531-45.058593-19.542968-6.441407-4.308594-8.824219-12.644532-5.628907-19.710938 2.644531-5.714844 29.78125-29.097656 33.875-35.328125 12.886719 13.996094.511719 23.808594 51.542969 34.132813 3.667969.769531 4.777344 22.957031 1.621094 25.089844zm0 0" fill="#4caf50"/><path d="m316.148438 380.503906v73.300782c-.007813 2.601562-.238282 5.199218-.683594 7.765624-3.359375 19.742188-18.160156 35.585938-37.632813 40.277344-22.378906-5.214844-38.28125-25.066406-38.484375-48.042968v-101.886719c25.988282 4.5625 50.976563 13.660156 73.8125 26.878906 1.023438.597656 2.046875 1.109375 2.988282 1.707031zm0 0" fill="#f44335"/><path d="m212.722656 108.546875c-10.972656-24.167969-22.613281-37.609375-34.59375-39.910156-7.019531-1.273438-14.203125 1.089843-19.097656 6.277343-4.027344 3.859376-7.347656 7.492188-10.496094 10.941407-13.335937 14.601562-22.972656 25.164062-81.398437 35.898437-3.171875.585938-5.738281 2.910156-6.640625 6.003906s.015625 6.433594 2.375 8.632813c8.0625 6.84375 17.128906 12.417969 26.878906 16.519531-26.15625 20.308594-36.367188 55.082032-25.34375 86.304688 11.023438 31.226562 40.804688 51.882812 73.910156 51.265625 33.105469-.613281 62.101563-22.359375 71.957032-53.972657 9.859374-31.609374-1.636719-65.980468-28.527344-85.304687 7.726562-3.4375 15.148437-7.519531 22.1875-12.203125 10.03125-6.601562 13.761718-19.523438 8.789062-30.453125zm-16.042968 104.789063c.011718 11.941406-3.578126 23.613281-10.296876 33.484374-18.054687 17.632813-46.925781 17.488282-64.804687-.324218-12.195313-12.226563-12.195313-32.011719 0-44.238282 7.996094-7.984374 20.949219-7.984374 28.945313 0 2.363281 2.363282 3.691406 5.566407 3.691406 8.90625 0 3.339844-1.328125 6.542969-3.691406 8.902344-1.285157 1.289063-3.027344 2.011719-4.847657 2.007813-1.816406.007812-3.558593-.714844-4.835937-2.007813-2.128906-2.273437-5.324219-3.207031-8.339844-2.4375-3.015625.765625-5.375 3.117188-6.15625 6.132813-.777344 3.011719.144531 6.210937 2.410156 8.347656 4.476563 4.5 10.566406 7.023437 16.914063 7.003906 6.351562.023438 12.445312-2.5 16.921875-7.003906 5.5625-5.5625 8.6875-13.105469 8.6875-20.972656 0-7.863281-3.125-15.410157-8.6875-20.96875-14.660156-14.648438-38.417969-14.648438-53.078125 0-18.847657 18.890625-18.847657 49.476562 0 68.367187 6.242187 6.238282 13.730469 11.089844 21.972656 14.234375-26.691406-2.410156-48.5-22.328125-53.308594-48.691406-4.8125-26.367187 8.554688-52.703125 32.675781-64.382813 7.371094 1.597657 14.886719 2.417969 22.425782 2.441407 9.175781-.046875 18.3125-1.207031 27.203125-3.457031 21.878906 9.378906 36.101562 30.851562 36.199219 54.65625zm-2.21875-88.515626c-46.300782 30.71875-84.09375 20.179688-104.234376 9.632813 46.824219-10.699219 57.625-22.546875 70.914063-37.09375 2.910156-3.183594 5.972656-6.546875 9.691406-10.105469 2.289063-2.199218 3.535157-1.960937 4.0625-1.859375 4.34375.855469 12.800781 9.25 22.289063 30.199219 1.535156 3.324219.371094 7.269531-2.722656 9.226562zm0 0"/><path d="m402.546875 64.429688c-91.660156-85.742188-234.042969-85.925782-325.925781-.421876-91.882813 85.503907-101.921875 227.53125-22.984375 325.113282 1.988281 2.472656 2.515625 5.808594 1.390625 8.773437-6.523438 18.3125-3.585938 38.664063 7.851562 54.386719 11.433594 15.71875 29.890625 24.785156 49.320313 24.222656 6.269531-.167968 12.464843-1.359375 18.347656-3.523437 10.378906-3.792969 21-6.871094 31.796875-9.21875 22.546875-4.84375 45.515625-7.449219 68.574219-7.78125 1.867187 28.246093 23.253906 51.332031 51.277343 55.355469 28.019532 4.019531 55.035157-12.117188 64.773438-38.699219l1.296875.445312c28.359375 10.441407 59.992187-2.503906 72.902344-29.824219 6.765625-14.15625 7.664062-30.414062 2.5-45.226562-1.132813-3-.605469-6.375 1.390625-8.882812 78.855468-97.382813 69.027344-239.152344-22.511719-324.71875zm-171.734375 341.179687c-40.191406.21875-80.058594 7.179687-117.945312 20.597656-3.625.980469-7.445313-.6875-9.191407-4.011719-1.753906-3.484374-.894531-7.714843 2.082031-10.238281 19.167969-15.359375 68.4375-49.988281 125.054688-53.265625zm59.734375 89.324219c-23.125.390625-42.207031-18.003906-42.667969-41.128906v-95.078126c11.542969.703126 22.980469 2.597657 34.136719 5.648438v36.691406c0 4.714844 3.820313 8.535156 8.53125 8.535156 4.714844 0 8.535156-3.820312 8.535156-8.535156v-31.316406c11.765625 4.367188 23.175781 9.636719 34.132813 15.761719v68.265625c-.007813 2.148437-.199219 4.289062-.574219 6.402344-3.539063 20.378906-21.410156 35.136718-42.09375 34.753906zm59.734375-99.054688c7.8125 4.988282 15.375 10.363282 22.648438 16.113282 2.960937 2.53125 3.816406 6.757812 2.0625 10.238281-1.589844 3.5625-5.683594 5.269531-9.335938 3.890625-4.265625-1.5-9.34375-3.292969-15.359375-5.117188zm61.542969-17.492187c-5.726563 7.101562-7.34375 16.671875-4.269531 25.257812 3.679687 10.539063 3.050781 22.105469-1.757813 32.179688-9.222656 19.386719-31.691406 28.558593-51.847656 21.171875l-3.285157-1.136719-.589843-.203125c0-.613281.164062-1.246094.164062-1.851562v-14.890626c3.617188 1.195313 6.828125 2.328126 9.753907 3.34375 2.671874 1 5.5 1.511719 8.355468 1.511719 9.46875-.042969 18.0625-5.5625 22.039063-14.15625 5.128906-10.65625 2.308593-23.433593-6.824219-30.941406-11.738281-9.40625-24.195312-17.882813-37.25-25.355469-.726562-.46875-1.484375-.851562-2.261719-1.320312l-1.152343-.640625c-31.359376-18.742188-67.027344-29.082031-103.550782-30.019531-65.578125 0-122.726562 40.105468-144.265625 57.34375-9.109375 7.484374-11.929687 20.226562-6.824219 30.855468 5.511719 11.28125 18.539063 16.71875 30.4375 12.707032 36.015626-12.742188 73.914063-19.359376 112.117188-19.566407v16.210938c-24.277344.339843-48.460938 3.085937-72.199219 8.191406-11.554687 2.523437-22.921875 5.824219-34.03125 9.882813-4.105469 1.511718-8.425781 2.339843-12.800781 2.449218-13.816406.421875-26.949219-6.015625-35.082031-17.195312-8.132813-11.179688-10.214844-25.65625-5.5625-38.671875 3.125-8.566407 1.503906-18.144531-4.265625-25.207031-61.363282-75.839844-65.992188-182.867188-11.398438-263.71875 54.59375-80.847657 155.59375-116.554688 248.871094-87.972657 93.277344 28.578125 156.941406 114.734375 156.871094 212.289063.199218 50.804687-17.261719 100.101562-49.390625 139.453125zm0 0"/><path d="m388.9375 152.910156c9.75-4.101562 18.8125-9.675781 26.878906-16.519531 2.359375-2.199219 3.277344-5.539063 2.375-8.632813s-3.472656-5.417968-6.640625-6.003906c-58.429687-10.734375-68.0625-21.332031-81.398437-35.898437-3.152344-3.414063-6.46875-7.082031-10.496094-10.941407-4.898438-5.183593-12.082031-7.546874-19.097656-6.277343-11.949219 2.300781-23.621094 15.742187-34.597656 39.910156-4.984376 10.945313-1.242188 23.890625 8.816406 30.488281 7.042968 4.679688 14.464844 8.761719 22.1875 12.203125-26.796875 19.3125-38.222656 53.605469-28.367188 85.132813 9.851563 31.527344 38.78125 53.207031 71.804688 53.820312 33.023437.609375 62.734375-19.980468 73.75-51.121094 11.019531-31.136718.871094-65.832031-25.191406-86.125zm-107.425781-37.316406c9.511719-20.949219 17.917969-29.371094 22.289062-30.199219.183594-.039062.371094-.058593.5625-.058593 1.371094.160156 2.625.847656 3.5 1.917968 3.71875 3.558594 6.78125 6.921875 9.691407 10.105469 13.261718 14.503906 24.054687 26.359375 70.683593 37.035156-20.292969 10.425781-58.214843 20.835938-104.003906-9.574219-3.09375-1.957031-4.257813-5.902343-2.722656-9.226562zm.503906 97.742188c.078125-23.820313 14.304687-45.316407 36.195313-54.699219 8.894531 2.265625 18.03125 3.441406 27.207031 3.5 7.535156-.007813 15.050781-.800781 22.425781-2.375 15.589844 7.535156 27.128906 21.480469 31.609375 38.207031s1.460937 34.574219-8.273437 48.894531c-18.054688 17.628907-46.921876 17.484375-64.800782-.324219-12.195312-12.226562-12.195312-32.011718 0-44.238281 7.996094-7.984375 20.949219-7.984375 28.945313 0 2.363281 2.363281 3.691406 5.566407 3.691406 8.90625 0 3.339844-1.328125 6.542969-3.691406 8.902344-1.285157 1.289063-3.027344 2.011719-4.847657 2.007813-1.816406.003906-3.558593-.714844-4.839843-2.007813-2.085938-2.40625-5.339844-3.449219-8.4375-2.703125-3.097657.742188-5.523438 3.152344-6.289063 6.242188-.765625 3.09375.253906 6.355468 2.644532 8.460937 4.476562 4.5 10.566406 7.023437 16.914062 7.003906 6.351562.023438 12.445312-2.5 16.921875-7.003906 5.5625-5.5625 8.6875-13.105469 8.6875-20.972656 0-7.863281-3.125-15.410157-8.6875-20.96875-14.660156-14.648438-38.417969-14.648438-53.078125 0-18.847656 18.890625-18.847656 49.476562 0 68.367187 6.242188 6.238282 13.730469 11.089844 21.972656 14.234375-30.710937-2.851562-54.214844-28.59375-54.269531-59.433593zm0 0"/></svg>