<svg viewBox="0 0 512 512" xmlns="http://www.w3.org/2000/svg"><path d="m456.699219 382.710938c7.738281 0 12.238281 8.8125 7.695312 15.078124-45.5 62.707032-119.371093 103.46875-202.773437 103.46875-136.714844 0-247.839844-109.574218-250.335938-245.691406-2.574218-140.171875 109.199219-254.546875 249.390625-255.066406 50.398438-.183594 97.339844 14.53125 136.695313 39.980469 7.109375 4.597656 11.4375 12.449219 11.4375 20.914062v273.429688c0 26.445312 21.441406 47.886719 47.890625 47.886719zm0 0" fill="#81c784"/><path d="m205.414062 377.601562h112.414063v117.316407c-18.066406 4.144531-36.882813 6.339843-56.207031 6.339843-19.328125 0-38.140625-2.191406-56.207032-6.332031zm0 0" fill="#0571b3"/><path d="m338.265625 418.480469h-153.292969c-5.644531 0-10.21875-4.574219-10.21875-10.21875v-20.441407c0-5.644531 4.574219-10.21875 10.21875-10.21875h153.292969c5.644531 0 10.222656 4.574219 10.222656 10.21875v20.441407c0 5.644531-4.578125 10.21875-10.222656 10.21875zm0 0" fill="#056099"/><path d="m483.289062 367.382812c-5.632812 10.695313-12.011718 20.945313-19.078124 30.65625h-448.882813c-8.464844 0-15.328125-6.863281-15.328125-15.328124v-327.027344c0-8.464844 6.863281-15.328125 15.328125-15.328125h381.882813c14.144531 9.128906 27.308593 19.640625 39.300781 31.351562 16.710937 16.320313 46.777343 295.675781 46.777343 295.675781zm-221.667968 71.535157c-16.933594 0-30.660156 13.726562-30.660156 30.660156v29.820313c10.050781 1.230468 20.28125 1.859374 30.660156 1.859374s20.609375-.632812 30.660156-1.859374v-29.820313c0-16.933594-13.726562-30.660156-30.660156-30.660156zm0 0" fill="#5592ca"/><path d="m45.988281 398.039062h-30.660156c-8.464844 0-15.328125-6.863281-15.328125-15.328124v-327.027344c0-8.464844 6.863281-15.328125 15.328125-15.328125h30.660156c-8.464843 0-15.328125 6.863281-15.328125 15.328125v327.027344c0 8.464843 6.863282 15.328124 15.328125 15.328124zm0 0" fill="#0571b3"/><path d="m512 250.878906c0 42.066406-10.367188 81.703125-28.699219 116.503906h-442.421875c-5.644531 0-10.21875-4.578124-10.21875-10.21875v-275.929687c0-5.644531 4.574219-10.21875 10.21875-10.21875h394.921875c47.054688 45.519531 76.199219 109.273437 76.199219 179.863281zm0 0" fill="#fdf7bd"/><path d="m112.414062 275.40625v20.4375c0 2.824219-2.285156 5.109375-5.109374 5.109375h-51.097657c-2.820312 0-5.109375-2.285156-5.109375-5.109375v-20.4375c0-2.820312 2.289063-5.109375 5.109375-5.109375h51.097657c2.824218 0 5.109374 2.289063 5.109374 5.109375zm76.648438-5.109375h-51.097656c-2.824219 0-5.109375 2.289063-5.109375 5.109375v20.4375c0 2.824219 2.285156 5.109375 5.109375 5.109375h51.097656c2.820312 0 5.109375-2.285156 5.109375-5.109375v-20.4375c0-2.820312-2.289063-5.109375-5.109375-5.109375zm81.757812 0h-51.101562c-2.820312 0-5.109375 2.289063-5.109375 5.109375v20.4375c0 2.824219 2.289063 5.109375 5.109375 5.109375h51.101562c2.820313 0 5.109376-2.285156 5.109376-5.109375v-20.4375c0-2.820312-2.289063-5.109375-5.109376-5.109375zm-163.515624 45.988281h-51.097657c-2.820312 0-5.109375 2.289063-5.109375 5.109375v20.4375c0 2.824219 2.289063 5.109375 5.109375 5.109375h51.097657c2.824218 0 5.109374-2.285156 5.109374-5.109375v-20.4375c0-2.820312-2.285156-5.109375-5.109374-5.109375zm81.757812 0h-51.097656c-2.824219 0-5.109375 2.289063-5.109375 5.109375v20.4375c0 2.824219 2.285156 5.109375 5.109375 5.109375h51.097656c2.820312 0 5.109375-2.285156 5.109375-5.109375v-20.4375c0-2.820312-2.289063-5.109375-5.109375-5.109375zm81.757812 0h-51.101562c-2.820312 0-5.109375 2.289063-5.109375 5.109375v20.4375c0 2.824219 2.289063 5.109375 5.109375 5.109375h51.101562c2.820313 0 5.109376-2.285156 5.109376-5.109375v-20.4375c0-2.820312-2.289063-5.109375-5.109376-5.109375zm155.335938-180.886718h-34.746094c-1.695312 0-3.066406 1.371093-3.066406 3.066406v4.085937c0 1.695313 1.371094 3.066407 3.066406 3.066407h34.746094c1.691406 0 3.066406-1.371094 3.066406-3.066407v-4.085937c0-1.695313-1.375-3.066406-3.066406-3.066406zm61.316406 65.40625h-34.746094c-1.695312 0-3.066406 1.371093-3.066406 3.0625v4.089843c0 1.691407 1.371094 3.066407 3.066406 3.066407h34.746094c1.695313 0 3.066406-1.375 3.066406-3.066407v-4.089843c0-1.691407-1.371093-3.0625-3.066406-3.0625zm-34.746094-55.1875h34.746094c.445313 0 .867188 0 1.394532-.023438-1.5625-3.355469-3.3125-6.921875-5.019532-10.195312h-31.121094c-1.695312 0-3.066406 1.371093-3.066406 3.066406v4.085937c0 1.695313 1.371094 3.066407 3.066406 3.066407zm-98.109374 55.1875h-44.964844c-1.691406 0-3.066406 1.371093-3.066406 3.0625v4.089843c0 1.691407 1.375 3.066407 3.066406 3.066407h44.964844c1.695312 0 3.066406-1.375 3.066406-3.066407v-4.089843c0-1.691407-1.371094-3.0625-3.066406-3.0625zm0-65.40625h-44.964844c-1.691406 0-3.066406 1.371093-3.066406 3.066406v4.085937c0 1.695313 1.375 3.066407 3.066406 3.066407h44.964844c1.695312 0 3.066406-1.371094 3.066406-3.066407v-4.085937c0-1.695313-1.371094-3.066406-3.066406-3.066406zm71.539062 65.40625h-34.746094c-1.695312 0-3.066406 1.371093-3.066406 3.0625v4.089843c0 1.691407 1.371094 3.066407 3.066406 3.066407h34.746094c1.691406 0 3.066406-1.375 3.066406-3.066407v-4.089843c0-1.691407-1.375-3.0625-3.066406-3.0625zm0 0" fill="#f5dc90"/><path d="m270.820312 254.964844h-214.613281c-2.820312 0-5.109375-2.285156-5.109375-5.109375v-153.292969c0-2.820312 2.289063-5.109375 5.109375-5.109375h214.613281c2.820313 0 5.109376 2.289063 5.109376 5.109375v153.292969c0 2.824219-2.289063 5.109375-5.109376 5.109375zm25.550782-71.535156v-20.4375c0-2.824219 2.289062-5.109376 5.109375-5.109376h192.679687c3.972656 9.921876 7.328125 20.152344 10.019532 30.65625h-202.699219c-2.820313 0-5.109375-2.289062-5.109375-5.109374zm214.234375 40.878906h-209.128907c-2.820312 0-5.109374 2.289062-5.109374 5.109375v20.4375c0 2.824219 2.289062 5.109375 5.109374 5.109375h210.492188c.019531-1.359375.03125-2.71875.03125-4.085938 0-8.976562-.472656-17.839844-1.394531-26.570312zm-209.128907-102.195313h174.929688c-6.472656-10.773437-13.75-21.019531-21.714844-30.660156h-153.214844c-2.820312 0-5.109374 2.289063-5.109374 5.109375v20.441406c0 2.820313 2.289062 5.109375 5.109374 5.109375zm0 0" fill="#ffe899"/><path d="m357.710938 171.167969v4.085937c0 1.695313-1.375 3.066406-3.066407 3.066406h-44.964843c-1.695313 0-3.066407-1.371093-3.066407-3.066406v-4.085937c0-1.695313 1.371094-3.066407 3.066407-3.066407h44.964843c1.691407 0 3.066407 1.371094 3.066407 3.066407zm-3.066407-69.496094h-44.964843c-1.695313 0-3.066407 1.375-3.066407 3.066406v4.089844c0 1.691406 1.371094 3.066406 3.066407 3.066406h44.964843c1.691407 0 3.066407-1.375 3.066407-3.066406v-4.089844c0-1.691406-1.375-3.066406-3.066407-3.066406zm98.109375 10.222656h17.171875c-2.320312-3.46875-4.734375-6.878906-7.21875-10.222656h-9.953125c-1.695312 0-3.066406 1.375-3.066406 3.066406v4.089844c0 1.691406 1.371094 3.066406 3.066406 3.066406zm-98.109375 122.632813h-44.964843c-1.695313 0-3.066407 1.371094-3.066407 3.066406v4.085938c0 1.695312 1.371094 3.066406 3.066407 3.066406h44.964843c1.691407 0 3.066407-1.371094 3.066407-3.066406v-4.085938c0-1.695312-1.375-3.066406-3.066407-3.066406zm71.535157-132.855469h-34.746094c-1.691406 0-3.066406 1.375-3.066406 3.066406v4.089844c0 1.691406 1.375 3.066406 3.066406 3.066406h34.746094c1.695312 0 3.066406-1.375 3.066406-3.066406v-4.089844c0-1.691406-1.371094-3.066406-3.066406-3.066406zm0 132.855469h-34.746094c-1.691406 0-3.066406 1.371094-3.066406 3.066406v4.085938c0 1.695312 1.375 3.066406 3.066406 3.066406h34.746094c1.695312 0 3.066406-1.371094 3.066406-3.066406v-4.085938c0-1.695312-1.371094-3.066406-3.066406-3.066406zm61.320312 0h-34.746094c-1.695312 0-3.066406 1.371094-3.066406 3.066406v4.085938c0 1.695312 1.371094 3.066406 3.066406 3.066406h34.746094c1.691406 0 3.066406-1.371094 3.066406-3.066406v-4.085938c0-1.695312-1.375-3.066406-3.066406-3.066406zm0-66.425782h-34.746094c-1.695312 0-3.066406 1.371094-3.066406 3.066407v4.085937c0 1.695313 1.371094 3.066406 3.066406 3.066406h34.746094c1.691406 0 3.066406-1.371093 3.066406-3.066406v-4.085937c0-1.695313-1.375-3.066407-3.066406-3.066407zm-61.320312 0h-34.746094c-1.691406 0-3.066406 1.371094-3.066406 3.066407v4.085937c0 1.695313 1.375 3.066406 3.066406 3.066406h34.746094c1.695312 0 3.066406-1.371093 3.066406-3.066406v-4.085937c0-1.695313-1.371094-3.066407-3.066406-3.066407zm0 0" fill="#fbc56d"/><path d="m246.292969 223.210938c0 4.527343-2.574219 8.195312-5.75 8.195312h-154.058594c-3.175781 0-5.75-3.667969-5.75-8.195312 0-4.527344 2.574219-8.195313 5.75-8.195313h154.058594c3.175781 0 5.75 3.667969 5.75 8.195313zm-156.105469-24.496094c5.390625-28.546875 27.042969-51.332032 54.953125-58.398438-.488281-.644531-.789063-1.4375-.789063-2.308594 0-2.117187 1.714844-3.832031 3.832032-3.832031v-3.832031c0-8.453125 6.875-15.328125 15.328125-15.328125s15.332031 6.875 15.332031 15.328125v3.832031c2.113281 0 3.832031 1.714844 3.832031 3.832031 0 .871094-.300781 1.664063-.792969 2.308594 27.914063 7.070313 49.566407 29.851563 54.957032 58.398438.4375 2.304687-1.320313 4.441406-3.664063 4.441406h-139.324219c-2.347656 0-4.101562-2.136719-3.664062-4.441406zm65.660156-64.539063h15.328125v-3.832031c0-4.226562-3.4375-7.664062-7.664062-7.664062-4.226563 0-7.664063 3.4375-7.664063 7.664062zm0 0" fill="#f4aa39"/><path d="m492.910156 346.941406h-189.390625c-2.820312 0-5.109375-2.285156-5.109375-5.109375v-66.425781c0-2.820312 2.289063-5.109375 5.109375-5.109375h207.738281c-2.070312 26.972656-8.40625 52.742187-18.347656 76.644531zm0 0" fill="#fdcdc7"/><path d="m490.539062 296.867188v4.085937c0 1.695313-1.371093 3.066406-3.066406 3.066406h-126.722656c-1.691406 0-3.066406-1.371093-3.066406-3.066406v-4.085937c0-1.695313 1.375-3.066407 3.066406-3.066407h126.722656c1.695313 0 3.066406 1.371094 3.066406 3.066407zm-156.359374 25.546874h-7.152344v-7.152343c0-1.691407-1.375-3.066407-3.066406-3.066407h-4.089844c-1.691406 0-3.066406 1.375-3.066406 3.066407v7.152343h-7.152344c-1.691406 0-3.066406 1.375-3.066406 3.066407v4.089843c0 1.691407 1.375 3.066407 3.066406 3.066407h7.152344v7.152343c0 1.695313 1.375 3.066407 3.066406 3.066407h4.089844c1.691406 0 3.066406-1.371094 3.066406-3.066407v-7.152343h7.152344c1.691406 0 3.066406-1.375 3.066406-3.066407v-4.089843c0-1.691407-1.375-3.066407-3.066406-3.066407zm26.570312-34.746093h24.527344c1.695312 0 3.066406-1.371094 3.066406-3.066407v-4.085937c0-1.691406-1.371094-3.066406-3.066406-3.066406h-24.527344c-1.691406 0-3.066406 1.375-3.066406 3.066406v4.085937c0 1.695313 1.375 3.066407 3.066406 3.066407zm0 36.792969h24.527344c1.695312 0 3.066406-1.375 3.066406-3.066407v-4.089843c0-1.691407-1.371094-3.066407-3.066406-3.066407h-24.527344c-1.691406 0-3.066406 1.375-3.066406 3.066407v4.089843c0 1.691407 1.375 3.066407 3.066406 3.066407zm85.84375 6.128906h-85.84375c-1.691406 0-3.066406 1.375-3.066406 3.066406v4.089844c0 1.691406 1.375 3.066406 3.066406 3.066406h85.84375c1.695312 0 3.066406-1.375 3.066406-3.066406v-4.089844c0-1.691406-1.371094-3.066406-3.066406-3.066406zm-112.414062-44.964844h-7.152344v-7.152344c0-1.695312-1.375-3.066406-3.066406-3.066406h-4.089844c-1.691406 0-3.066406 1.371094-3.066406 3.066406v7.152344h-7.152344c-1.691406 0-3.066406 1.371094-3.066406 3.066406v4.085938c0 1.695312 1.375 3.066406 3.066406 3.066406h7.152344v7.15625c0 1.691406 1.375 3.066406 3.066406 3.066406h4.089844c1.691406 0 3.066406-1.375 3.066406-3.066406v-7.15625h7.152344c1.691406 0 3.066406-1.371094 3.066406-3.066406v-4.085938c0-1.695312-1.375-3.066406-3.066406-3.066406zm0 0" fill="#fd8e82"/></svg>