<?xml version="1.0" encoding="iso-8859-1"?>
<!-- Generator: Adobe Illustrator 19.0.0, SVG Export Plug-In . SVG Version: 6.00 Build 0)  -->
<svg version="1.1" id="Capa_1" xmlns="http://www.w3.org/2000/svg" xmlns:xlink="http://www.w3.org/1999/xlink" x="0px" y="0px"
	 viewBox="0 0 512 512" style="enable-background:new 0 0 512 512;" xml:space="preserve">
<circle style="fill:#A5D6A7;" cx="256" cy="256" r="245"/>
<g>
	<path style="fill:#FFFFFF;" d="M439.5,172.698V221c0,1.355-1.145,2.5-2.5,2.5H334v15h103c9.649,0,17.5-7.851,17.5-17.5v-52.365
		C449.685,170.421,444.672,171.79,439.5,172.698z"/>
	<path style="fill:#FFFFFF;" d="M406.5,172.115V190c0,1.355-1.145,2.5-2.5,2.5h-70v15h70c9.649,0,17.5-7.851,17.5-17.5v-16.054
		C416.375,173.771,411.363,173.148,406.5,172.115z"/>
	<path style="fill:#FFFFFF;" d="M78.5,302.455v36.008c2.96-0.307,5.963-0.467,9.002-0.467c2.017,0,4.016,0.075,5.998,0.211v-33.854
		C88.326,304.337,83.301,303.68,78.5,302.455z"/>
	<path style="fill:#FFFFFF;" d="M123.725,296.501H178v-15h-36.506C136.588,287.556,130.559,292.66,123.725,296.501z"/>
	<path style="fill:#FFFFFF;" d="M108.5,329v11.579c5.201,1.302,10.217,3.075,15,5.272V329c0-1.355,1.145-2.5,2.5-2.5h52v-15h-52
		C116.351,311.5,108.5,319.351,108.5,329z"/>
</g>
<g>
	<path style="fill:#445EA0;" d="M256,94c-43.631,0-79,35.37-79,79v172c0,43.63,35.369,79,79,79s79-35.37,79-79V173
		C335,129.37,299.631,94,256,94z M295,297c0,21.505-17.495,39-39,39s-39-17.495-39-39v-76c0-21.505,17.495-39,39-39s39,17.495,39,39
		V297z"/>
	<path style="fill:#445EA0;" d="M256,94c-43.631,0-79,35.37-79,79v86h40v-38c0-21.505,17.495-39,39-39s39,17.495,39,39v38h40v-86
		C335,129.37,299.631,94,256,94z"/>
</g>
<path style="fill:#2E4C89;" d="M266,94.652C262.723,94.238,259.39,94,256,94c-43.631,0-79,35.37-79,79v86h20v-86
	C197,132.76,227.094,99.57,266,94.652z"/>
<path style="fill:#C3DDF4;" d="M295,259v38c0,21.505-17.495,39-39,39s-39-17.495-39-39v-38h-40v86c0,43.63,35.369,79,79,79
	s79-35.37,79-79v-86H295z"/>
<path id="SVGCleanerId_0" style="fill:#02AF8E;" d="M231,247v50c0,13.807,11.193,25,25,25s25-11.193,25-25v-50H231z"/>
<path style="fill:#94C2ED;" d="M197,345v-86h-20v86c0,43.63,35.369,79,79,79c3.39,0,6.723-0.238,10-0.652
	C227.094,418.43,197,385.24,197,345z"/>
<path style="fill:#6DC3ED;" d="M256,337c-22.056,0-40-17.944-40-40v-76c0-22.056,17.944-40,40-40s40,17.944,40,40v76
	C296,319.056,278.056,337,256,337z"/>
<path style="fill:#FFFFFF;" d="M256,196c-13.807,0-25,11.193-25,25v27h50v-27C281,207.193,269.807,196,256,196z"/>
<g>
	<path id="SVGCleanerId_0_1_" style="fill:#02AF8E;" d="M231,247v50c0,13.807,11.193,25,25,25s25-11.193,25-25v-50H231z"/>
</g>
<path style="fill:#0F9390;" d="M247,297v-50h-16v50c0,13.807,11.193,25,25,25c2.799,0,5.487-0.467,8-1.315
	C254.118,317.348,247,308.008,247,297z"/>
<circle style="fill:#445EA0;" cx="424.5" cy="87.5" r="87.5"/>
<path style="fill:#60D882;" d="M437.177,94.3l-10.093,10.094l-9.214-9.214c-1.084,0.139-2.18,0.226-3.289,0.226
	c-0.579,0-1.151-0.026-1.721-0.063c-2.775,2.729-6.148,4.848-9.91,6.131l11.05,11.05V146c0,2.75,2.25,5,5,5h15.777
	c2.75,0,5-2.25,5-5v-33.087l10.743-10.744C445.3,100.936,440.675,98.142,437.177,94.3z"/>
<path style="fill:#0F9390;" d="M388.379,69.203c0-3.605,0.732-7.042,2.055-10.171c-1.346-2.683-2.244-5.625-2.597-8.732
	c-11.798,2.975-20.531,13.654-20.531,26.376c0,15.024,12.179,27.202,27.202,27.202c7.768,0,14.768-3.26,19.725-8.481
	C399.944,95.208,388.379,83.533,388.379,69.203z"/>
<g>
	<path style="fill:#28A5A5;" d="M472.695,54.786c-0.658,13.867-12.143,24.946-26.169,24.946c-2.255,0-4.501-0.289-6.674-0.86
		l-0.836-0.219l-0.338,0.795c-1.527,3.586-3.787,6.699-6.557,9.203c4.429,9.018,13.7,15.227,24.425,15.227
		c15.024,0,27.203-12.178,27.203-27.202C483.75,67.698,479.4,59.74,472.695,54.786z"/>
	<path style="fill:#28A5A5;" d="M414.581,43c2.199,0,4.435,0.293,6.645,0.872l0.836,0.219l0.338-0.795
		c2.504-5.896,6.991-10.512,12.486-13.235c-4.989-6.067-12.553-9.938-21.021-9.938c-15.022,0-27.202,12.179-27.202,27.202
		c0,4.692,1.189,9.107,3.28,12.96C393.6,50.214,403.263,43,414.581,43z"/>
</g>
<path style="fill:#159E97;" d="M420.324,53.529c0-3.68,0.766-7.183,2.142-10.364C419.97,42.41,417.323,42,414.581,42
	c-15.023,0-27.202,12.179-27.202,27.203s12.179,27.202,27.202,27.202c11.604,0,21.505-7.268,25.414-17.498
	C428.696,75.998,420.324,65.723,420.324,53.529z"/>
<circle style="fill:#0F9390;" cx="446.53" cy="53.53" r="27.2"/>
<circle style="fill:#445EA0;" cx="87.5" cy="424.5" r="87.5"/>
<path style="fill:#2E4C89;" d="M21,424.498c0-44.771,33.627-81.684,77.002-86.872c-3.443-0.412-6.946-0.629-10.5-0.629
	C39.176,336.997,0,376.172,0,424.498S39.176,512,87.502,512c3.554,0,7.057-0.218,10.5-0.629C54.627,506.183,21,469.27,21,424.498z"
	/>
<path style="fill:#FE3745;" d="M126.826,393.754c-5.097,6.207-12.544,9.741-20.659,9.741c-6.693,0-13.105-2.495-18.057-7.022
	l-0.675-0.618l-0.675,0.618c-4.95,4.528-11.362,7.022-18.055,7.022c-8.116,0-15.564-3.534-20.661-9.742
	c-10.49,8.177-17.245,20.923-17.245,35.254v2.079c0,24.678,20.007,44.685,44.685,44.685h23.902
	c24.678,0,44.685-20.006,44.685-44.685v-2.079C144.071,414.676,137.316,401.931,126.826,393.754z"/>
<path style="fill:#EA2A3D;" d="M51.729,431.086v-2.079c0-10.035,3.321-19.286,8.908-26.742c-4.891-1.528-9.249-4.44-12.592-8.512
	C37.555,401.93,30.8,414.676,30.8,429.007v2.079c0,24.678,20.007,44.685,44.685,44.685h20.929
	C71.735,475.771,51.729,455.764,51.729,431.086z"/>
<path style="fill:#28A5A5;" d="M86.761,386.44l0.675,0.617l0.675-0.617c2.302-2.105,4.922-3.764,7.736-4.944V365c0-1.65-1.35-3-3-3
	H82.024c-1.65,0-3,1.35-3,3v16.496C81.84,382.676,84.459,384.335,86.761,386.44z"/>
<path style="fill:#0F9390;" d="M106.167,404.495c-6.943,0-13.596-2.587-18.731-7.285c-5.135,4.697-11.787,7.284-18.729,7.285
	c-8.931,0-17.087-4.123-22.373-11.31c-0.757-1.028-0.757-2.429-0.001-3.458c5.287-7.187,13.441-11.31,22.372-11.311
	c6.944,0.001,13.597,2.588,18.731,7.285c5.136-4.697,11.787-7.284,18.729-7.285c8.933,0.001,17.088,4.124,22.374,11.311
	c0.756,1.028,0.756,2.429,0,3.457C123.252,400.372,115.098,404.495,106.167,404.495L106.167,404.495z"/>
<circle style="fill:#EA2A3D;" cx="225.5" cy="360.5" r="7.5"/>
<circle style="fill:#FF8DB9;" cx="256" cy="360.5" r="7.5"/>
<circle style="fill:#0F9390;" cx="286.5" cy="360.5" r="7.5"/>
<circle style="fill:#2E4C89;" cx="93.7" cy="242.86" r="62.5"/>
<path style="fill:#293D7C;" d="M52,242.856c0-30.973,22.534-56.667,52.099-61.623c-3.385-0.567-6.856-0.878-10.402-0.878
	c-34.519,0-62.502,27.983-62.502,62.501c0,34.519,27.983,62.502,62.502,62.502c3.546,0,7.018-0.311,10.402-0.878
	C74.534,299.524,52,273.829,52,242.856z"/>
<circle style="fill:#445EA0;" cx="93.7" cy="105.62" r="62.5"/>
<path style="fill:#2E4C89;" d="M52,105.619c0-30.973,22.534-56.667,52.099-61.624c-3.385-0.567-6.856-0.878-10.402-0.878
	c-34.519,0-62.502,27.983-62.502,62.501c0,34.519,27.983,62.502,62.502,62.502c3.546,0,7.018-0.311,10.402-0.878
	C74.534,162.287,52,136.592,52,105.619z"/>
<circle style="fill:#445EA0;" cx="411.5" cy="314.5" r="62.5"/>
<path style="fill:#9CE2D8;" d="M93.696,210.642c0.713,0,1.371,0.381,1.727,0.999l17.023,29.603
	c2.199,3.514,3.361,7.564,3.361,11.717c0,12.192-9.92,22.112-22.111,22.112s-22.111-9.919-22.111-22.112
	c0-4.152,1.162-8.203,3.361-11.717l17.023-29.603C92.325,211.023,92.983,210.642,93.696,210.642z"/>
<path style="fill:#74D1C1;" d="M81.777,252.96c0-4.152,1.162-8.203,3.361-11.717L98.793,217.5l-3.37-5.859
	c-0.355-0.618-1.014-0.999-1.727-0.999s-1.371,0.381-1.727,0.999l-17.023,29.603c-2.199,3.514-3.361,7.564-3.361,11.717
	c0,12.192,9.92,22.112,22.111,22.112c1.754,0,3.459-0.211,5.097-0.6C89.051,272.164,81.777,263.398,81.777,252.96z"/>
<path style="fill:#FFFFFF;" d="M117.352,96.202c-8.742-7.792-20.138-12.255-32.053-12.255c-15.517,0-30.176,7.55-39.205,20.197
	c-0.313,0.441-0.472,0.959-0.472,1.476c0,0.518,0.158,1.036,0.472,1.476c9.029,12.646,23.688,20.197,39.205,20.197
	c11.915,0,23.311-4.465,32.053-12.256c5.024,4.661,11.127,8.066,17.785,9.839c0.747,0.199,1.544,0.039,2.157-0.432
	c0.612-0.471,0.971-1.2,0.971-1.972V88.767c0-0.771-0.358-1.502-0.971-1.972c-0.613-0.471-1.41-0.631-2.157-0.433
	C128.477,88.136,122.375,91.541,117.352,96.202z"/>
<circle style="fill:#999CAD;" cx="64.66" cy="104.24" r="7.141"/>
<path style="fill:#FFFFFF;" d="M463.592,316.056c0-27-30-57-58-36s-25.999,12-39,16c-13,4-5.787,61.985,48,58
	C468.593,350.056,463.592,316.056,463.592,316.056z"/>
<path style="fill:#D9EAFC;" d="M424.878,347.804c-45.673,3.383-57.76-37.91-52.409-52.896c-1.644,0.126-3.51,0.421-5.877,1.149
	c-13,4-5.787,61.985,48,58c18.813-1.393,30.459-6.43,37.656-12.399C445.445,344.675,436.539,346.94,424.878,347.804z"/>
<circle style="fill:#FFCA51;" cx="415.55" cy="314.45" r="21"/>
<path style="fill:#FFAF10;" d="M405,314.454c0-9.789,6.709-17.991,15.773-20.317c-1.674-0.43-3.418-0.683-5.227-0.683
	c-11.599,0-21.001,9.402-21.001,20.999c0,11.598,9.402,21,21,21c1.809,0,3.554-0.252,5.228-0.682
	C411.709,332.445,405,324.243,405,314.454z"/>
<g>
</g>
<g>
</g>
<g>
</g>
<g>
</g>
<g>
</g>
<g>
</g>
<g>
</g>
<g>
</g>
<g>
</g>
<g>
</g>
<g>
</g>
<g>
</g>
<g>
</g>
<g>
</g>
<g>
</g>
</svg>
