<svg viewBox="0 0 512 512" xmlns="http://www.w3.org/2000/svg"><path d="m45.199219 393.867188c-28.507813-40.679688-45.2343752-90.222657-45.199219-143.675782.09375-139.015625 116.046875-252.691406 255.046875-250.1484372 136.128906 2.4882812 245.710937 113.6093752 245.710937 250.3203122 0 53.332031-16.71875 102.828125-45.140624 143.441407-2.238282 3.199218-6.089844 4.726562-9.9375 4.070312-60.734376-10.359375-126.554688-16.027344-195.300782-16.027344-68.804687 0-134.667968 5.679688-195.445312 16.050782-3.753906.640624-7.546875-.914063-9.734375-4.03125zm0 0" fill="#5de0c3"/><path d="m163.511719 80.730469c0 11.285156-9.148438 20.4375-20.4375 20.4375v102.1875c0 5.644531-4.574219 10.21875-10.21875 10.21875s-10.21875-4.574219-10.21875-10.21875v-102.1875c-11.289063 0-20.441407-9.152344-20.441407-20.4375 0-11.289063 9.152344-20.4375 20.441407-20.4375h20.4375c11.289062 0 20.4375 9.148437 20.4375 20.4375zm214.613281-20.4375h-20.441406c-11.289063 0-20.4375 9.148437-20.4375 20.4375 0 11.285156 9.148437 20.4375 20.4375 20.4375v102.1875c0 5.644531 4.578125 10.21875 10.21875 10.21875 5.644531 0 10.222656-4.574219 10.222656-10.21875v-102.1875c11.289062 0 20.4375-9.152344 20.4375-20.4375 0-11.289063-9.148438-20.4375-20.4375-20.4375zm0 0" fill="#056099"/><path d="m172.710938 60.292969c0 11.285156-9.152344 20.4375-20.4375 20.4375h-86.023438c14.363281-15.582031 30.671875-29.339844 48.550781-40.878907h37.472657c11.285156 0 20.4375 9.152344 20.4375 20.441407zm303.519531-35.769531c-12.152344 0-22.882813 6.066406-29.34375 15.328124h-59.566407c-11.289062 0-20.4375 9.152344-20.4375 20.441407 0 11.285156 9.148438 20.4375 20.4375 20.4375h59.566407c6.460937 9.261719 17.191406 15.328125 29.34375 15.328125 19.753906 0 35.769531-16.015625 35.769531-35.765625 0-19.753907-16.015625-35.769531-35.769531-35.769531zm0 0" fill="#b55c3c"/><path d="m417.980469 60.292969c0 11.285156-9.152344 20.4375-20.441407 20.4375h-245.265624c-11.289063 0-20.441407-9.152344-20.441407-20.4375 0-11.289063 9.152344-20.441407 20.441407-20.441407h245.265624c11.289063 0 20.441407 9.152344 20.441407 20.441407zm58.25-35.769531c-4.132813 0-8.101563.710937-11.792969 2-1.292969 3.695312-2.003906 7.660156-2.003906 11.796874 0 19.753907 16.015625 35.765626 35.769531 35.765626 4.136719 0 8.101563-.707032 11.796875-2 1.289062-3.695313 2-7.660157 2-11.792969 0-19.753907-16.015625-35.769531-35.769531-35.769531zm0 0" fill="#cc7556"/><path d="m459.878906 351.53125c0 14.472656-1.46875 28.628906-4.265625 42.273438-26.085937 37.257812-62.035156 67.074218-104.082031 85.652343-5.554688 2.453125-10.011719-5.019531-5.285156-8.828125 34.777344-28.019531 57.007812-70.960937 57.007812-119.09375.003906-84.347656-69.683594-153.496094-154.035156-152.871094-83.898438.621094-151.722656 68.824219-151.722656 152.867188 0 48.199219 22.210937 91.179688 57.070312 119.195312 4.683594 3.765626.171875 11.179688-5.324218 8.753907-42.09375-18.585938-78-48.417969-104.105469-85.703125-2.800781-13.683594-4.269531-27.855469-4.261719-42.367188.066406-117.433594 95.539062-211.242187 212.960938-209.339844 114.109374 1.847657 206.042968 94.921876 206.042968 209.460938zm0 0" fill="#fde5bd"/><path d="m430.003906 424.78125c-6.53125 2.371094-40.894531-2.355469-31.582031-34.824219 3.5-12.203125 4.882813-25.179687 4.882813-38.464843 0-83.761719-66.601563-151.5-150.355469-152.851563-14.523438-.234375-28.589844 1.558594-41.9375 5.113281-17.859375 4.757813-35.324219-8.945312-35.324219-27.425781 0-12.792969 8.558594-24.058594 20.921875-27.335937 16.921875-4.492188 34.679687-6.917969 52.996094-6.988282 115.90625-.445312 210.324219 93.585938 210.324219 209.488282 0 14.5-1.5 28.644531-4.308594 42.3125-7.714844 11.007812-16.273438 21.367187-25.617188 30.976562zm0 0" fill="#fff5f5"/><path d="m413.460938 351.550781c0 51.839844-24.195313 98.023438-61.902344 127.894531-30.941406 13.683594-65.171875 21.300782-101.179688 21.300782-36.011718 0-70.242187-7.597656-101.183594-21.285156-37.707031-29.867188-61.902343-76.074219-61.902343-127.910157 0-90.066406 73.015625-163.074219 163.085937-163.074219 90.066406 0 163.082032 73.011719 163.082032 163.074219zm0 0" fill="#f4aa39"/><path d="m413.453125 351.5625c0 51.839844-24.195313 98.023438-61.902344 127.890625-30.945312 13.6875-65.171875 21.304687-101.183593 21.304687-7.070313 0-14.070313-.296874-20.992188-.875-14.257812-1.195312-27.410156-8.015624-36.527344-19.046874-27.4375-33.203126-42.503906-78.714844-42.503906-129.273438 0-70.074219 34.414062-131.03125 85.128906-162.371094 4.910156-.441406 9.871094-.703125 14.894532-.703125 90.070312 0 163.085937 73.007813 163.085937 163.074219zm0 0" fill="#fdbf43"/><path d="m355.0625 467.578125.703125 8.429687c-1.386719 1.175782-2.796875 2.320313-4.21875 3.449219-19.476563 8.609375-39.59375 14.988281-61.949219 18.242188l2.507813-30.121094c-2.242188-1.378906-3.753907-3.832031-3.753907-6.65625 0-4.320313 3.507813-7.828125 7.828126-7.828125h7.832031v-25.921875h-15.660157c-4.324218 0-7.828124-3.503906-7.828124-7.828125v-111.695312c0-34.589844 28.042968-62.628907 62.632812-62.628907 4.324219 0 7.832031 3.503907 7.832031 7.828125v166.496094c0 4.324219-3.507812 7.828125-7.832031 7.828125v25.921875h7.832031c4.324219 0 7.828125 3.507812 7.828125 7.828125 0 2.824219-1.511718 5.277344-3.753906 6.65625zm-123.464844-222.5c-.902344-.066406-1.671875.660156-1.671875 1.566406v88.945313c0 6.324218-4.859375 11.765625-11.175781 12.0625-6.742188.316406-12.3125-5.058594-12.3125-11.730469v-79.160156c0-6.484375-5.257812-11.742188-11.742188-11.742188-6.488281 0-11.746093 5.257813-11.746093 11.742188v78.828125c0 6.324218-4.859375 11.765625-11.175781 12.0625-6.742188.316406-12.3125-5.058594-12.3125-11.730469v-89.277344c0-.90625-.765626-1.632812-1.671876-1.566406-12.191406.855469-21.816406 11.019531-21.816406 23.425781v79.160156c0 21.621094 17.527344 39.144532 39.148438 39.144532v66.285156h-7.828125c-4.324219 0-7.832031 3.507812-7.832031 7.828125 0 2.828125 1.511718 5.277344 3.753906 6.65625l-1.421875 17.046875c21.265625 8.714844 43.644531 13.214844 67.070312 15.210938l-2.6875-32.257813c2.242188-1.378906 3.75-3.832031 3.75-6.65625 0-4.320313-3.503906-7.828125-7.828125-7.828125h-7.832031v-66.285156c21.621094 0 39.148437-17.523438 39.148437-39.144532v-79.160156c0-12.40625-9.625-22.570312-21.816406-23.425781zm0 0" fill="#fff5f5"/></svg>