<?xml version="1.0" encoding="iso-8859-1"?>
<!-- Generator: Adobe Illustrator 19.0.0, SVG Export Plug-In . SVG Version: 6.00 Build 0)  -->
<svg version="1.1" id="Capa_1" xmlns="http://www.w3.org/2000/svg" xmlns:xlink="http://www.w3.org/1999/xlink" x="0px" y="0px"
	 viewBox="0 0 512 512" style="enable-background:new 0 0 512 512;" xml:space="preserve">
<g>
	<path style="fill:#55C2E3;" d="M126.794,242.558H97.815l-36.303,46.091l28.628,179.549C94.163,493.431,115.927,512,141.478,512
		h11.535l21.389-141.104L126.794,242.558z"/>
	<path style="fill:#55C2E3;" d="M385.196,242.558h28.979l36.303,46.091L421.85,468.198C417.827,493.431,396.063,512,370.512,512
		h-11.535l-21.389-141.104L385.196,242.558z"/>
</g>
<g>
	<polygon style="fill:#F3F5E6;" points="217.183,512 153.014,512 117.825,274.987 126.794,242.558 195.417,242.558 258.395,377.278 
			"/>
	<polygon style="fill:#F3F5E6;" points="294.807,512 358.976,512 394.166,274.987 385.196,242.558 316.573,242.558 253.596,377.278 
			"/>
</g>
<polygon style="fill:#55C2E3;" points="195.417,297.126 217.183,512 294.807,512 316.573,297.126 321.372,242.558 195.417,242.558 
	"/>
<path style="fill:#45B6D9;" d="M120.586,468.198L91.958,288.649l35.305-44.826l-0.47-1.266l0,0H97.815l-36.303,46.091
	l28.628,179.549C94.163,493.431,115.927,512,141.478,512h11.535l0.509-3.362C136.518,502.196,123.595,487.061,120.586,468.198z"/>
<path style="fill:#FB8D4B;" d="M255.996,302.932c20.03,0,36.779-14.05,40.929-32.832v0.008c4.154,18.778,20.9,32.824,40.927,32.824
	c20.03,0,36.779-14.05,40.93-32.832v0.008c4.154,18.778,20.9,32.824,40.927,32.824c0.556,0,1.11-0.011,1.661-0.032
	c22.501-0.877,39.879-20.306,39.096-42.81C455.818,126.442,357.849,69.371,255.996,69.371S56.172,126.442,51.523,260.09
	c-0.782,22.504,16.596,41.933,39.096,42.81c0.551,0.021,1.105,0.032,1.661,0.032c20.027,0,36.775-14.046,40.927-32.824v-0.008
	c4.151,18.782,20.899,32.832,40.929,32.832c20.027,0,36.775-14.046,40.927-32.824v-0.008
	C219.216,288.883,235.965,302.932,255.996,302.932z"/>
<path style="fill:#E86D24;" d="M81.969,260.09c4.417-126.973,93.064-184.82,189.249-190.284c-5.058-0.287-10.134-0.436-15.223-0.436
	c-101.854,0-199.823,57.071-204.472,190.72c-0.782,22.504,16.596,41.932,39.096,42.81c0.551,0.021,1.105,0.032,1.661,0.032
	c5.43,0,10.614-1.039,15.376-2.919C92.055,293.694,81.351,277.854,81.969,260.09z"/>
<g>
	<path style="fill:#3B484A;" d="M168.539,213.84c-4.204,0-7.611-3.408-7.611-7.611V190.4c0-4.204,3.408-7.611,7.611-7.611
		s7.611,3.408,7.611,7.611v15.828C176.15,210.432,172.742,213.84,168.539,213.84z"/>
	<path style="fill:#3B484A;" d="M343.452,213.84c-4.204,0-7.611-3.408-7.611-7.611V190.4c0-4.204,3.408-7.611,7.611-7.611
		c4.204,0,7.611,3.408,7.611,7.611v15.828C351.063,210.432,347.655,213.84,343.452,213.84z"/>
	<path style="fill:#3B484A;" d="M255.996,222.288c-10.609,0-20.566-4.43-27.317-12.152c-2.767-3.165-2.444-7.974,0.722-10.74
		c3.165-2.766,7.974-2.444,10.74,0.722c3.86,4.416,9.638,6.948,15.855,6.948c6.216,0,11.995-2.532,15.854-6.948
		c2.768-3.165,7.576-3.488,10.74-0.722c3.165,2.767,3.488,7.575,0.722,10.74C276.561,217.859,266.604,222.288,255.996,222.288z"/>
</g>
<circle style="fill:#FEC300;" cx="117.953" cy="114.091" r="19.013"/>
<circle style="fill:#F9545B;" cx="57.934" cy="209.904" r="19.013"/>
<circle style="fill:#55C2E3;" cx="394.037" cy="114.091" r="19.013"/>
<circle style="fill:#4CC7B3;" cx="454.066" cy="209.904" r="19.013"/>
<path style="fill:#DE4B51;" d="M255.993,89.404c-3.249,0-6.257-2.096-7.268-5.361c-0.183-0.589-4.468-14.615-4.514-31.5
	c-0.063-23.592,8.192-41.348,23.872-51.348c3.545-2.261,8.249-1.219,10.51,2.325c2.26,3.544,1.22,8.25-2.325,10.51
	c-11.219,7.155-16.883,20.099-16.835,38.472c0.04,14.626,3.794,26.914,3.832,27.036c1.244,4.016-1.003,8.279-5.017,9.523
	C257.498,89.293,256.74,89.404,255.993,89.404z"/>
<circle style="fill:#F9545B;" cx="255.995" cy="81.787" r="32.78"/>
<path style="fill:#BDBFB4;" d="M171.919,512c-6.853-0.001-13.43-1.349-19.468-3.792l0.563,3.792H171.919z"/>
<g>
</g>
<g>
</g>
<g>
</g>
<g>
</g>
<g>
</g>
<g>
</g>
<g>
</g>
<g>
</g>
<g>
</g>
<g>
</g>
<g>
</g>
<g>
</g>
<g>
</g>
<g>
</g>
<g>
</g>
</svg>
