<svg viewBox="0 0 512 512" xmlns="http://www.w3.org/2000/svg"><path d="m11.082031 250.144531c3.371094-132.371093 111.734375-238.644531 244.917969-238.644531s241.546875 106.273438 244.917969 238.644531zm0 0" fill="#0ed1b2"/><path d="m501 256.5c0 50.199219-15.097656 96.871094-41 135.726562-21.78125 32.671876-53.199219 57.8125-87.703125 76.875-35.070313 19.371094-73.398437 32.398438-116.296875 32.398438-9.335938 0-18.546875-.523438-27.609375-1.539062-122.3125-13.71875-217.390625-117.484376-217.390625-243.460938 0-2.125.027344-4.242188.082031-6.355469h489.835938c.054687 2.113281.082031 4.230469.082031 6.355469zm0 0" fill="#e43950"/><path d="m166.140625 419.238281-47.222656-42.726562c-33.832031-30.617188-65.480469-63.5625-94.710938-98.59375l-6.261719-7.5h309.613282c-33.589844 41.410156-70.515625 80.007812-110.402344 115.402343l-37.730469 33.484376c-3.796875 3.367187-9.519531 3.339843-13.285156-.066407zm0 0" fill="#fd7c66"/><path d="m71.667969 270.417969h256.730469c-18.195313 25.585937-52.597657 60.441406-80.832032 87.480469-24.894531 23.84375-64 24.355468-89.558594 1.226562-30.628906-27.71875-59.464843-57.351562-86.339843-88.707031zm0 0" fill="#fd8e82"/><path d="m432 257.5c0 8.285156-6.714844 15-15 15h-402c-8.285156 0-15-6.714844-15-15s6.714844-15 15-15h6.691406c6.578125-101.597656 91.050782-181.96875 194.308594-181.96875s187.730469 80.371094 194.308594 181.96875h6.691406c8.285156 0 15 6.714844 15 15zm0 0" fill="#ebae56"/><path d="m207.402344 220.46875h200.21875c-13.566406-75.199219-70.304688-135.386719-143.632813-153.972656 1.257813-1.671875 2.011719-3.742188 2.011719-5.996094 0-5.523438-4.476562-10-10-10v-10c0-22.054688-17.945312-40-40-40s-40 17.945312-40 40v10c-5.523438 0-10 4.476562-10 10 0 2.253906.753906 4.328125 2.015625 6-8.179687 1.914062-10.9375 3.519531-11.394531 3.871094-63.582032 48.542968-29.214844 150.097656 50.78125 150.097656zm-11.402344-179.96875c0-11.027344 8.972656-20 20-20s20 8.972656 20 20v10h-40zm236 217c0 8.285156-6.714844 15-15 15h-352c-8.285156 0-15-6.714844-15-15s6.714844-15 15-15h352c8.285156 0 15 6.714844 15 15zm0 0" fill="#fbc56d"/><path d="m329.703125 436.703125c-.0625 34.1875-26.695313 62.695313-60.835937 64.464844-4.261719.21875-8.550782.332031-12.867188.332031-9.34375 0-18.539062-.519531-27.609375-1.539062-4.957031-2.449219-8.390625-7.558594-8.390625-13.460938v-371c0-8.285156 6.714844-15 15-15h80c8.28125 0 15 6.714844 15 15 0 0-.105469 217.625-.296875 321.203125zm0 0" fill="#056099"/><path d="m460 115.5v276.726562c-6.785156 10.179688-14.308594 19.820313-22.5 28.847657-4.277344 4.714843-9.738281 9.265625-14.367188 13.636719-5.890624 5.558593-11.058593 10.828124-17.476562 15.789062-39.613281 30.605469-88.863281 49.34375-142.425781 50.894531-7.449219-.878906-13.230469-7.210937-13.230469-14.894531v-371c0-8.285156 6.714844-15 15-15h180c8.285156 0 15 6.714844 15 15zm0 0" fill="#0571b3"/><path d="m355 475.5c0 1.996094-.398438 3.921875-1.105469 5.664062-6.660156 2.90625-13.457031 5.519532-20.410156 7.835938-5.007813-2.429688-8.484375-7.5625-8.484375-13.5 0-8.285156 6.71875-15 15-15 8.285156 0 15 6.714844 15 15zm0 0" fill="#056099"/><path d="m405.65625 450.5h-148.15625c-8.285156 0-15-6.714844-15-15v-290c0-8.285156 6.714844-15 15-15h165c8.285156 0 15 6.714844 15 15v275.574219c-9.542969 11.015625-20.367188 20.5625-31.84375 29.425781zm0 0" fill="#fff5f5"/><path d="m310 268.832031h-30c-5.523438 0-10-4.476562-10-10v-98.332031c0-5.523438 4.476562-10 10-10h30c5.523438 0 10 4.476562 10 10v98.332031c0 5.523438-4.476562 10-10 10zm0 0" fill="#fdcb6b"/><path d="m502 268.832031h-202c-5.523438 0-10-4.476562-10-10v-98.332031c0-5.523438 4.476562-10 10-10h202c5.523438 0 10 4.476562 10 10v98.332031c0 5.523438-4.476562 10-10 10zm0 0" fill="#ffdf8e"/><path d="m500 249.53125c0 3.609375-2.050781 6.535156-4.582031 6.535156h-122.835938c-2.53125 0-4.582031-2.925781-4.582031-6.535156 0-3.605469 2.050781-6.535156 4.582031-6.535156h122.832031c2.535157 0 4.585938 2.929687 4.585938 6.535156zm-124.464844-19.53125c4.300782-22.757812 21.5625-40.925781 43.820313-46.558594-.390625-.515625-.632813-1.148437-.632813-1.84375 0-1.6875 1.367188-3.054687 3.054688-3.054687v-3.054688c0-6.742187 5.484375-12.222656 12.222656-12.222656s12.222656 5.480469 12.222656 12.222656v3.054688c1.6875 0 3.054688 1.367187 3.054688 3.054687 0 .695313-.242188 1.328125-.628906 1.84375 22.253906 5.632813 39.515624 23.800782 43.816406 46.558594.347656 1.839844-1.050782 3.542969-2.921875 3.542969h-111.085938c-1.871093 0-3.269531-1.703125-2.921875-3.542969zm52.355469-51.457031h12.21875v-3.054688c0-3.371093-2.738281-6.109375-6.109375-6.109375s-6.109375 2.738282-6.109375 6.109375zm0 0" fill="#f4aa39"/><path d="m380 170.5v5c0 2.761719-2.238281 5-5 5h-90c-2.761719 0-5-2.238281-5-5v-5c0-2.761719 2.238281-5 5-5h90c2.761719 0 5 2.238281 5 5zm-55 25h-40c-2.761719 0-5 2.238281-5 5v5c0 2.761719 2.238281 5 5 5h40c2.761719 0 5-2.238281 5-5v-5c0-2.761719-2.238281-5-5-5zm0 0" fill="#ebae56"/><path d="m418.570312 315.5h-73.570312c-2.761719 0-5-2.238281-5-5v-5c0-2.761719 2.238281-5 5-5h73.570312c2.761719 0 5 2.238281 5 5v5c0 2.761719-2.238281 5-5 5zm-23.570312 25v-5c0-2.761719-2.238281-5-5-5h-45c-2.761719 0-5 2.238281-5 5v5c0 2.761719 2.238281 5 5 5h45c2.761719 0 5-2.238281 5-5zm28.570312 45v-5c0-2.761719-2.238281-5-5-5h-73.570312c-2.761719 0-5 2.238281-5 5v5c0 2.761719 2.238281 5 5 5h73.570312c2.761719 0 5-2.238281 5-5zm-28.570312 30v-5c0-2.761719-2.238281-5-5-5h-45c-2.761719 0-5 2.238281-5 5v5c0 2.761719 2.238281 5 5 5h45c2.761719 0 5-2.238281 5-5zm0 0" fill="#ffbe71"/><path d="m320 325.5c0 16.566406-13.429688 30-30 30s-30-13.433594-30-30 13.429688-30 30-30 30 13.433594 30 30zm-30 45c-16.570312 0-30 13.433594-30 30s13.429688 30 30 30 30-13.433594 30-30-13.429688-30-30-30zm0-90c16.570312 0 30-13.433594 30-30s-13.429688-30-30-30-30 13.433594-30 30 13.429688 30 30 30zm0 0" fill="#fc544d"/><path d="m310 323.832031v3.332031c0 2.765626-2.238281 5-5 5h-8.332031v8.335938c0 2.761719-2.238281 5-5 5h-3.332031c-2.761719 0-5-2.238281-5-5v-8.335938h-8.335938c-2.761719 0-5-2.234374-5-5v-3.332031c0-2.761719 2.238281-5 5-5h8.332031v-8.332031c0-2.761719 2.238281-5 5-5h3.332031c2.761719 0 5 2.238281 5 5v8.332031h8.335938c2.761719 0 5 2.238281 5 5zm-5 70h-8.332031v-8.332031c0-2.761719-2.238281-5-5-5h-3.332031c-2.761719 0-5 2.238281-5 5v8.332031h-8.335938c-2.761719 0-5 2.238281-5 5v3.332031c0 2.765626 2.238281 5 5 5h8.332031v8.335938c0 2.761719 2.238281 5 5 5h3.332031c2.761719 0 5-2.238281 5-5v-8.335938h8.335938c2.761719 0 5-2.234374 5-5v-3.332031c0-2.761719-2.238281-5-5-5zm0-150h-8.332031v-8.332031c0-2.761719-2.238281-5-5-5h-3.332031c-2.761719 0-5 2.238281-5 5v8.332031h-8.335938c-2.761719 0-5 2.238281-5 5v3.332031c0 2.765626 2.238281 5 5 5h8.332031v8.335938c0 2.761719 2.238281 5 5 5h3.332031c2.761719 0 5-2.238281 5-5v-8.335938h8.335938c2.761719 0 5-2.234374 5-5v-3.332031c0-2.761719-2.238281-5-5-5zm0 0" fill="#fff5f5"/></svg>