<svg viewBox="0 0 512 512" xmlns="http://www.w3.org/2000/svg"><path d="m501.257812 261.621094c0 138.28125-112.09375 250.378906-250.367187 250.378906s-250.367187-112.097656-250.367187-250.378906 112.09375-250.378906 250.367187-250.378906 250.367187 112.097656 250.367187 250.378906zm0 0" fill="#d9e7ec"/><path d="m9.097656 327.023438h164.082032c5.644531 0 10.21875-4.574219 10.21875-10.21875v-296.363282c21.460937-5.992187 44.078124-9.203125 67.449218-9.203125 1.363282 0 2.726563.03125 4.085938.054688v500.695312c-1.359375.019531-2.71875.007813-4.085938.007813-23.371094 0-45.988281-3.191406-67.449218-9.179688v-114.476562c0-5.644532-4.574219-10.21875-10.21875-10.21875h-143.984376c-8.46875-16.082032-15.261718-33.191406-20.097656-51.097656zm0 0" fill="#c5d3dd"/><path d="m457.890625 357.683594c11.648437 0 18.980469 12.445312 13.449219 22.695312-16.75 31.019532-39.8125 58.097656-67.527344 79.5h-98.765625c-11.289063 0-20.4375-9.148437-20.4375-20.4375v-81.757812zm-298.980469 136.878906v-76.582031c0-8.464844-6.863281-15.328125-15.328125-15.328125h-99.597656c28.054687 41.078125 68.023437 73.375 114.925781 91.910156zm0 0" fill="#b6c4cf"/><path d="m158.722656 287.277344c0 8.46875-6.859375 15.332031-15.328125 15.332031h-139.582031c-2.167969-13.25-3.277344-26.84375-3.3125-40.707031-.25-105.734375 65.140625-196.15625 158.222656-232.871094zm0 0" fill="#0ab59e"/><path d="m31.449219 204.117188c5.5625-45.359376 19.003906-99.9375 49.417969-126.292969 22.515624-20.839844 48.867187-37.597657 77.878906-49.085938v183.285157c0 35.289062-28.605469 63.894531-63.894532 63.894531-38.421874 0-68.082031-33.660157-63.402343-71.800781zm0 0" fill="#0ed1b2"/><path d="m496.167969 242.910156c-16.582031 35.070313-37.191407 68.082032-61.425781 98.371094l-79.835938 99.800781c-6.449219 8.0625-18.710938 8.0625-25.160156 0l-79.835938-99.800781c-24.230468-30.289062-44.84375-63.300781-61.421875-98.371094-30.71875-64.972656-17.304687-142.246094 33.511719-193.066406 66.457031-66.457031 174.199219-66.457031 240.652344 0 50.820312 50.820312 64.234375 128.089844 33.515625 193.066406zm0 0" fill="#fc544d"/><path d="m496.167969 242.910156c-25.210938 60.425782-83.707031 126.226563-83.707031 126.226563-10.921876 13.652343-27.460938 21.601562-44.945313 21.601562s-33.023437-8.804687-44.941406-21.601562c-27.007813-28.992188-67.128907-91.15625-83.707031-126.226563-30.71875-64.972656-17.304688-142.246094 33.511718-193.066406 26.804688-26.804688 60.320313-42.789062 95.140625-47.972656 34.8125 5.183594 68.332031 21.167968 95.136719 47.972656 50.816406 50.820312 64.230469 128.089844 33.511719 193.066406zm0 0" fill="#fd7c66"/><path d="m479.277344 166.382812c0 75.636719-61.316406 136.953126-136.949219 136.953126s-136.945313-61.316407-136.945313-136.953126c0-75.636718 61.3125-136.953124 136.945313-136.953124s136.949219 61.316406 136.949219 136.953124zm0 0" fill="#f4aa39"/><path d="m479.277344 166.382812c0 75.636719-61.316406 136.953126-136.949219 136.953126-4.21875 0-10.722656 0-17.117187-1.0625-42.585938-26.320313-66.878907-77.042969-66.878907-135.890626 0-58.847656 28.898438-110.042968 71.488281-136.359374 4.121094-.375 8.289063-.59375 12.507813-.59375 75.632813 0 136.949219 61.316406 136.949219 136.953124zm0 0" fill="#fdbf43"/><path d="m344.875 96.636719v66.476562c0 18.15625-14.71875 32.875-32.871094 32.875v55.667969h6.574219c3.628906 0 6.574219 2.941406 6.574219 6.574219 0 2.371093-1.269532 4.433593-3.152344 5.589843l3.207031 38.457032c-21.089843-1.992188-41.1875-10-57.523437-21.058594l1.449218-17.398438c-1.882812-1.15625-3.152343-3.21875-3.152343-5.589843 0-3.628907 2.945312-6.574219 6.574219-6.574219h6.574218v-55.667969c-18.152344 0-32.871094-14.71875-32.871094-32.875v-66.476562c0-10.421875 8.082032-18.957031 18.316407-19.675781.761719-.054688 1.40625.554687 1.40625 1.316406v74.976562c0 5.601563 4.675781 10.117188 10.339843 9.847656 5.304688-.246093 9.382813-4.816406 9.382813-10.128906v-66.199218c0-5.449219 4.417969-9.863282 9.863281-9.863282 5.449219 0 9.863282 4.414063 9.863282 9.863282v66.476562c0 5.605469 4.675781 10.117188 10.335937 9.851562 5.304687-.25 9.386719-4.820312 9.386719-10.128906v-74.695312c0-.761719.644531-1.371094 1.40625-1.316406 10.234375.71875 18.316406 9.253906 18.316406 19.675781zm88.511719 161.59375c0-3.628907-2.945313-6.574219-6.574219-6.574219h-6.574219v-21.769531c3.628907 0 6.574219-2.945313 6.574219-6.578125v-139.824219c0-3.632813-2.945312-6.574219-6.574219-6.574219-29.050781 0-52.597656 23.546875-52.597656 52.597656v93.800782c0 3.632812 2.941406 6.578125 6.574219 6.578125h13.148437v21.769531h-6.574219c-3.628906 0-6.574218 2.941406-6.574218 6.574219 0 2.371093 1.269531 4.433593 3.152344 5.589843l-2.980469 35.742188c21.617187-4.472656 41.203125-14.945312 56.4375-28.660156l-.589844-7.082032c1.882813-1.15625 3.152344-3.21875 3.152344-5.589843zm0 0" fill="#fff5f5"/></svg>